<svg width="433" height="900" viewBox="0 0 433 900" fill="none" xmlns="http://www.w3.org/2000/svg">
<g filter="url(#filter0_f_2018_37013)">
<rect width="215.546" height="83.1665" rx="27.8493" transform="matrix(1 0 0 -1 108.346 867.914)" fill="url(#paint0_radial_2018_37013)" fill-opacity="0.29"/>
</g>
<path d="M183.572 203.992C183.572 202.306 184.939 200.94 186.624 200.94H244.993C246.679 200.94 248.045 202.306 248.045 203.992V231.078C248.045 234.449 245.313 237.182 241.941 237.182H189.676C186.305 237.182 183.572 234.449 183.572 231.078V203.992Z" fill="black"/>
<path fill-rule="evenodd" clip-rule="evenodd" d="M315.88 201.131C303.863 201.131 291.04 203.509 281.164 212.576C277.492 215.947 274.66 218.63 272.338 220.83C265.453 227.352 263.052 229.627 256.557 232.986C251.639 235.53 249.284 235.511 244.935 235.475C244.393 235.471 243.819 235.466 243.205 235.466L245.494 239.662C247.783 240.425 261.975 244.469 263.043 242.333C264.378 239.662 287.459 216.2 293.181 213.53C298.595 211.003 311.217 210.154 315.88 212.195C316.429 212.435 317.15 212.798 317.98 213.216C321.766 215.123 327.805 218.165 329.996 215.819L333.238 201.131L327.325 196.744C327.349 196.267 327.064 196.067 321.984 196.744C318.848 198.607 317.527 199.564 315.88 201.131ZM117.12 201.131C129.137 201.131 141.96 203.509 151.836 212.576C155.508 215.947 158.34 218.63 160.662 220.83C167.547 227.352 169.948 229.627 176.443 232.986C181.361 235.53 183.716 235.511 188.065 235.475C188.607 235.471 189.181 235.466 189.795 235.466L187.506 239.663C185.217 240.426 171.025 244.469 169.957 242.333C168.622 239.663 146.495 216.582 139.819 213.53C134.385 211.046 121.783 210.155 117.12 212.195C116.571 212.435 115.85 212.798 115.02 213.216C111.234 215.123 105.195 218.166 103.004 215.819L99.7617 201.131L105.675 196.744C105.651 196.267 105.936 196.067 111.016 196.744C114.152 198.607 115.473 199.564 117.12 201.131Z" fill="black"/>
<path fill-rule="evenodd" clip-rule="evenodd" d="M30.4868 202.282C28.5932 202.383 27.1406 204.001 27.2423 205.894L27.7742 215.799C27.8759 217.693 29.4934 219.145 31.3869 219.043L80.9102 216.384C82.8038 216.282 84.2564 214.665 84.1547 212.771L83.6228 202.867C83.5211 200.973 81.9036 199.521 80.0101 199.622L30.4868 202.282ZM402.513 202.282C404.406 202.383 405.859 204.001 405.757 205.894L405.225 215.799C405.124 217.693 403.506 219.145 401.613 219.043L352.089 216.384C350.196 216.282 348.743 214.665 348.845 212.771L349.377 202.867C349.479 200.973 351.096 199.521 352.989 199.622L402.513 202.282Z" fill="black"/>
<path fill-rule="evenodd" clip-rule="evenodd" d="M29.5661 103.277C35.1252 103.277 40.3261 101.742 44.7682 99.0742L102.241 178.019V195.282L102.476 195.309L86.5594 196.164C82.9827 196.356 80.2389 199.412 80.431 202.988L80.923 212.15C81.1151 215.727 84.1703 218.47 87.7469 218.278L105.638 217.318C109.215 217.125 111.959 214.07 111.767 210.494L111.275 201.332C111.148 198.972 109.775 196.976 107.829 195.945L109.108 196.096L104.609 176.301L104.902 176.088L104.406 175.407L104.34 175.114L104.245 175.186L47.4895 97.2265C54.5662 91.8245 59.1322 83.3008 59.1322 73.7106C59.1322 57.3817 45.895 44.1445 29.5661 44.1445C13.2372 44.1445 0 57.3817 0 73.7106C0 90.0395 13.2372 103.277 29.5661 103.277Z" fill="black"/>
<path fill-rule="evenodd" clip-rule="evenodd" d="M403.434 103.277C397.943 103.277 392.802 101.78 388.396 99.1722L330.778 178.317L330.759 178.303V195.296L330.608 195.314L346.441 196.164C350.017 196.356 352.761 199.412 352.569 202.988L352.077 212.15C351.885 215.727 348.83 218.47 345.253 218.278L327.362 217.318C323.785 217.125 321.041 214.07 321.233 210.494L321.725 201.332C321.852 198.975 323.221 196.98 325.164 195.948L323.892 196.096L328.407 176.591L328.31 176.52L328.476 176.293L328.66 175.496L328.918 175.686L385.851 97.4826C378.581 92.0961 373.868 83.4537 373.868 73.7106C373.868 57.3817 387.105 44.1445 403.434 44.1445C419.763 44.1445 433 57.3817 433 73.7106C433 90.0395 419.763 103.277 403.434 103.277Z" fill="black"/>
<path d="M338.77 686.014C353.105 672.635 357.272 644.431 357.272 627.645L286.791 462.075H216.309H145.732L75.1548 627.645C75.1548 644.431 79.3221 672.635 93.6575 686.014C110.825 702.037 153.362 698.413 174.344 699.367H216.309H258.083C279.065 698.413 321.602 702.037 338.77 686.014Z" fill="black"/>
<rect width="7.42405" height="57.5328" transform="matrix(-0.999932 -0.0116592 -0.0116592 0.999932 151.899 557.074)" fill="black"/>
<rect width="16.6516" height="127.043" rx="8.32578" transform="matrix(-4.37114e-08 1 0.999967 -0.0081146 153.744 696.124)" fill="black"/>
<rect width="16.6516" height="20.0792" rx="8.32578" transform="matrix(-0.999866 0.0164018 -0.0082877 -0.999966 282.06 714.295)" fill="black"/>
<rect width="16.6516" height="20.0792" rx="8.32578" transform="matrix(0.999866 0.0164018 0.0082877 -0.999966 152.333 714.295)" fill="black"/>
<rect x="154.062" y="464.071" width="19.0749" height="243.577" rx="9.53744" transform="rotate(0.66804 154.062 464.071)" fill="black"/>
<rect x="282.493" y="557.074" width="7.42405" height="57.5328" transform="rotate(-0.66804 282.493 557.074)" fill="black"/>
<rect width="19.0749" height="243.577" rx="9.53744" transform="matrix(-0.999932 0.0116592 0.0116592 0.999932 280.331 464.071)" fill="black"/>
<path d="M156.032 250.344C105.757 277.415 95.4374 324.418 93.8478 338.47C83.293 389.336 78.4353 460.931 77.0619 537.993L75.3457 628.027C90.1611 636.267 98.6617 638.324 117.691 642.333C127.285 554.895 118.456 467.416 217.454 467.416C316.452 467.416 306.095 554.895 316.452 642.333C335.481 638.324 343.982 636.267 358.797 628.027L357.081 537.993C355.708 460.931 350.85 389.336 340.295 338.47C338.706 324.418 328.386 277.415 278.111 250.344C270.672 246.338 260.753 241.09 252.742 239.09C238.887 235.631 221.442 234.681 217.454 235.084C213.466 234.681 195.256 235.631 181.402 239.09C173.39 241.09 163.471 246.338 156.032 250.344Z" fill="black"/>
<rect x="254.15" y="664.46" width="1.90749" height="78.97" rx="0.953744" fill="black"/>
<rect width="3.81498" height="63.7101" transform="matrix(-1 0 0 1 254.15 672.09)" fill="black"/>
<rect x="180.902" y="554.589" width="69.8141" height="298.713" rx="26.7048" fill="black"/>
<defs>
<filter id="filter0_f_2018_37013" x="99.6857" y="776.088" width="232.866" height="100.487" filterUnits="userSpaceOnUse" color-interpolation-filters="sRGB">
<feFlood flood-opacity="0" result="BackgroundImageFix"/>
<feBlend mode="normal" in="SourceGraphic" in2="BackgroundImageFix" result="shape"/>
<feGaussianBlur stdDeviation="4.33" result="effect1_foregroundBlur_2018_37013"/>
</filter>
<radialGradient id="paint0_radial_2018_37013" cx="0" cy="0" r="1" gradientUnits="userSpaceOnUse" gradientTransform="translate(107.773 41.5833) rotate(180) scale(107.773 41.5833)">
<stop offset="0.601383"/>
<stop offset="1" stop-opacity="0"/>
</radialGradient>
</defs>
</svg>
