<svg width="433" height="900" viewBox="0 0 433 900" fill="none" xmlns="http://www.w3.org/2000/svg">
<g filter="url(#filter0_f_2015_8233)">
<rect width="215.546" height="83.1665" rx="27.8493" transform="matrix(1 0 0 -1 108.346 867.914)" fill="url(#paint0_radial_2015_8233)" fill-opacity="0.29"/>
</g>
<path d="M184.572 203.992C184.572 202.307 185.939 200.94 187.624 200.94H245.993C247.679 200.94 249.045 202.307 249.045 203.992V231.079C249.045 234.45 246.313 237.182 242.941 237.182H190.676C187.305 237.182 184.572 234.45 184.572 231.079V203.992Z" fill="#121212"/>
<path d="M184.572 203.992C184.572 202.307 185.939 200.94 187.624 200.94H245.993C247.679 200.94 249.045 202.307 249.045 203.992V231.079C249.045 234.45 246.313 237.182 242.941 237.182H190.676C187.305 237.182 184.572 234.45 184.572 231.079V203.992Z" fill="url(#paint1_radial_2015_8233)" fill-opacity="0.15"/>
<path fill-rule="evenodd" clip-rule="evenodd" d="M117.12 201.131C129.137 201.131 141.96 203.508 151.836 212.576C155.508 215.947 158.34 218.63 160.662 220.83C167.547 227.352 169.948 229.626 176.443 232.986C181.361 235.53 183.716 235.51 188.065 235.475C188.607 235.47 189.181 235.466 189.795 235.466L187.506 239.662C185.217 240.425 171.026 244.469 169.957 242.333C168.622 239.662 146.495 216.581 139.819 213.529C134.385 211.046 121.783 210.154 117.12 212.194C116.571 212.434 115.85 212.798 115.02 213.216C111.234 215.123 105.195 218.165 103.004 215.818L99.7617 201.131L105.675 196.744C105.651 196.267 105.936 196.067 111.016 196.744C114.152 198.606 115.473 199.564 117.12 201.131ZM315.88 201.131C303.863 201.131 291.04 203.508 281.164 212.576C277.492 215.947 274.66 218.63 272.338 220.83C265.453 227.352 263.052 229.627 256.557 232.986C251.639 235.53 249.284 235.51 244.935 235.475C244.393 235.47 243.819 235.466 243.205 235.466L245.494 239.662C247.783 240.425 261.975 244.469 263.043 242.333C264.378 239.662 287.459 216.2 293.181 213.53C298.595 211.003 311.217 210.154 315.88 212.194C316.429 212.434 317.15 212.798 317.98 213.216C321.766 215.123 327.805 218.165 329.996 215.819L333.238 201.131L327.325 196.744C327.349 196.267 327.064 196.067 321.984 196.744C318.848 198.606 317.527 199.564 315.88 201.131Z" fill="#1E1E1E"/>
<path fill-rule="evenodd" clip-rule="evenodd" d="M117.12 201.131C129.137 201.131 141.96 203.508 151.836 212.576C155.508 215.947 158.34 218.63 160.662 220.83C167.547 227.352 169.948 229.626 176.443 232.986C181.361 235.53 183.716 235.51 188.065 235.475C188.607 235.47 189.181 235.466 189.795 235.466L187.506 239.662C185.217 240.425 171.026 244.469 169.957 242.333C168.622 239.662 146.495 216.581 139.819 213.529C134.385 211.046 121.783 210.154 117.12 212.194C116.571 212.434 115.85 212.798 115.02 213.216C111.234 215.123 105.195 218.165 103.004 215.818L99.7617 201.131L105.675 196.744C105.651 196.267 105.936 196.067 111.016 196.744C114.152 198.606 115.473 199.564 117.12 201.131ZM315.88 201.131C303.863 201.131 291.04 203.508 281.164 212.576C277.492 215.947 274.66 218.63 272.338 220.83C265.453 227.352 263.052 229.627 256.557 232.986C251.639 235.53 249.284 235.51 244.935 235.475C244.393 235.47 243.819 235.466 243.205 235.466L245.494 239.662C247.783 240.425 261.975 244.469 263.043 242.333C264.378 239.662 287.459 216.2 293.181 213.53C298.595 211.003 311.217 210.154 315.88 212.194C316.429 212.434 317.15 212.798 317.98 213.216C321.766 215.123 327.805 218.165 329.996 215.819L333.238 201.131L327.325 196.744C327.349 196.267 327.064 196.067 321.984 196.744C318.848 198.606 317.527 199.564 315.88 201.131Z" fill="url(#paint2_radial_2015_8233)"/>
<path fill-rule="evenodd" clip-rule="evenodd" d="M30.4868 202.282C28.5932 202.384 27.1406 204.001 27.2423 205.895L27.7742 215.799C27.8759 217.693 29.4934 219.145 31.3869 219.044L80.9103 216.384C82.8038 216.283 84.2564 214.665 84.1547 212.772L83.6228 202.867C83.5211 200.973 81.9036 199.521 80.0101 199.622L30.4868 202.282ZM402.513 202.282C404.406 202.384 405.859 204.001 405.757 205.895L405.225 215.799C405.124 217.693 403.506 219.145 401.613 219.044L352.089 216.384C350.196 216.283 348.743 214.665 348.845 212.772L349.377 202.867C349.479 200.973 351.096 199.521 352.989 199.622L402.513 202.282Z" fill="#161616"/>
<path fill-rule="evenodd" clip-rule="evenodd" d="M30.4868 202.282C28.5932 202.384 27.1406 204.001 27.2423 205.895L27.7742 215.799C27.8759 217.693 29.4934 219.145 31.3869 219.044L80.9103 216.384C82.8038 216.283 84.2564 214.665 84.1547 212.772L83.6228 202.867C83.5211 200.973 81.9036 199.521 80.0101 199.622L30.4868 202.282ZM402.513 202.282C404.406 202.384 405.859 204.001 405.757 205.895L405.225 215.799C405.124 217.693 403.506 219.145 401.613 219.044L352.089 216.384C350.196 216.283 348.743 214.665 348.845 212.772L349.377 202.867C349.479 200.973 351.096 199.521 352.989 199.622L402.513 202.282Z" fill="url(#paint3_linear_2015_8233)" fill-opacity="0.15"/>
<path fill-rule="evenodd" clip-rule="evenodd" d="M29.5661 103.277C35.1253 103.277 40.3261 101.742 44.7682 99.0742L102.241 178.019V195.282L102.476 195.31L86.5594 196.164C82.9827 196.356 80.239 199.412 80.431 202.988L80.923 212.15C81.1151 215.727 84.1703 218.47 87.7469 218.278L105.638 217.318C109.215 217.125 111.959 214.07 111.767 210.494L111.275 201.332C111.148 198.973 109.776 196.976 107.829 195.945L109.108 196.097L104.609 176.301L104.902 176.088L104.406 175.407L104.34 175.114L104.245 175.186L47.4895 97.2265C54.5662 91.8245 59.1322 83.3008 59.1322 73.7106C59.1322 57.3817 45.895 44.1445 29.5661 44.1445C13.2372 44.1445 0 57.3817 0 73.7106C0 90.0395 13.2372 103.277 29.5661 103.277Z" fill="#121212"/>
<path fill-rule="evenodd" clip-rule="evenodd" d="M29.5661 103.277C35.1253 103.277 40.3261 101.742 44.7682 99.0742L102.241 178.019V195.282L102.476 195.31L86.5594 196.164C82.9827 196.356 80.239 199.412 80.431 202.988L80.923 212.15C81.1151 215.727 84.1703 218.47 87.7469 218.278L105.638 217.318C109.215 217.125 111.959 214.07 111.767 210.494L111.275 201.332C111.148 198.973 109.776 196.976 107.829 195.945L109.108 196.097L104.609 176.301L104.902 176.088L104.406 175.407L104.34 175.114L104.245 175.186L47.4895 97.2265C54.5662 91.8245 59.1322 83.3008 59.1322 73.7106C59.1322 57.3817 45.895 44.1445 29.5661 44.1445C13.2372 44.1445 0 57.3817 0 73.7106C0 90.0395 13.2372 103.277 29.5661 103.277Z" fill="url(#paint4_radial_2015_8233)" fill-opacity="0.15"/>
<path fill-rule="evenodd" clip-rule="evenodd" d="M403.434 103.277C397.943 103.277 392.802 101.78 388.396 99.1722L330.778 178.317L330.759 178.303V195.297L330.608 195.314L346.441 196.164C350.017 196.356 352.761 199.412 352.569 202.988L352.077 212.15C351.885 215.727 348.83 218.47 345.253 218.278L327.362 217.318C323.785 217.125 321.041 214.07 321.233 210.494L321.725 201.332C321.852 198.975 323.221 196.98 325.164 195.948L323.892 196.097L328.407 176.591L328.31 176.521L328.476 176.293L328.66 175.496L328.918 175.686L385.851 97.4826C378.581 92.0962 373.868 83.4538 373.868 73.7106C373.868 57.3817 387.105 44.1445 403.434 44.1445C419.763 44.1445 433 57.3817 433 73.7106C433 90.0395 419.763 103.277 403.434 103.277Z" fill="#121212"/>
<path fill-rule="evenodd" clip-rule="evenodd" d="M403.434 103.277C397.943 103.277 392.802 101.78 388.396 99.1722L330.778 178.317L330.759 178.303V195.297L330.608 195.314L346.441 196.164C350.017 196.356 352.761 199.412 352.569 202.988L352.077 212.15C351.885 215.727 348.83 218.47 345.253 218.278L327.362 217.318C323.785 217.125 321.041 214.07 321.233 210.494L321.725 201.332C321.852 198.975 323.221 196.98 325.164 195.948L323.892 196.097L328.407 176.591L328.31 176.521L328.476 176.293L328.66 175.496L328.918 175.686L385.851 97.4826C378.581 92.0962 373.868 83.4538 373.868 73.7106C373.868 57.3817 387.105 44.1445 403.434 44.1445C419.763 44.1445 433 57.3817 433 73.7106C433 90.0395 419.763 103.277 403.434 103.277Z" fill="url(#paint5_radial_2015_8233)" fill-opacity="0.15"/>
<path d="M338.77 686.015C353.105 672.635 357.272 644.431 357.272 627.645L286.791 462.075H216.309H145.732L75.1548 627.645C75.1548 644.431 79.3221 672.635 93.6575 686.015C110.825 702.038 153.362 698.413 174.344 699.367H216.309H258.083C279.065 698.413 321.602 702.038 338.77 686.015Z" fill="#181818"/>
<path d="M145.732 462.075H216.309H286.791L357.272 627.645C243.867 657.664 181.994 657.746 75.1548 627.645L145.732 462.075Z" fill="#111111"/>
<rect width="7.42405" height="57.5328" transform="matrix(-0.999932 -0.0116592 -0.0116592 0.999932 151.899 557.074)" fill="url(#paint6_linear_2015_8233)"/>
<rect width="16.6516" height="127.043" rx="8.32579" transform="matrix(-4.37114e-08 1 0.999967 -0.0081146 153.744 696.124)" fill="url(#paint7_linear_2015_8233)"/>
<rect width="16.6516" height="127.043" rx="8.32579" transform="matrix(-4.37114e-08 1 0.999967 -0.0081146 153.744 696.124)" fill="black" fill-opacity="0.34"/>
<rect width="16.6516" height="20.0792" rx="8.32579" transform="matrix(-0.999866 0.0164018 -0.0082877 -0.999966 282.06 714.295)" fill="url(#paint8_linear_2015_8233)"/>
<rect width="16.6516" height="20.0792" rx="8.32579" transform="matrix(-0.999866 0.0164018 -0.0082877 -0.999966 282.06 714.295)" fill="black" fill-opacity="0.2"/>
<rect width="16.6516" height="20.0792" rx="8.32579" transform="matrix(0.999866 0.0164018 0.0082877 -0.999966 152.333 714.295)" fill="url(#paint9_linear_2015_8233)"/>
<rect width="16.6516" height="20.0792" rx="8.32579" transform="matrix(0.999866 0.0164018 0.0082877 -0.999966 152.333 714.295)" fill="black" fill-opacity="0.2"/>
<rect x="154.062" y="464.071" width="19.0749" height="243.577" rx="9.53745" transform="rotate(0.66804 154.062 464.071)" fill="url(#paint10_linear_2015_8233)"/>
<rect x="282.493" y="557.074" width="7.42405" height="57.5328" transform="rotate(-0.66804 282.493 557.074)" fill="url(#paint11_linear_2015_8233)"/>
<rect width="19.0749" height="243.577" rx="9.53745" transform="matrix(-0.999932 0.0116592 0.0116592 0.999932 280.331 464.071)" fill="url(#paint12_linear_2015_8233)"/>
<path d="M156.032 250.344C105.757 277.415 95.4374 324.418 93.8478 338.47C83.293 389.336 78.4353 460.931 77.0619 537.993L75.3457 628.027C90.1611 636.267 98.6617 638.324 117.691 642.333C127.285 554.895 118.456 467.416 217.454 467.416C316.452 467.416 306.096 554.895 316.452 642.333C335.481 638.324 343.982 636.267 358.797 628.027L357.081 537.993C355.708 460.931 350.85 389.336 340.295 338.47C338.706 324.418 328.386 277.415 278.111 250.344C270.672 246.338 260.753 241.09 252.742 239.09C238.887 235.631 221.442 234.681 217.454 235.084C213.466 234.681 195.256 235.631 181.402 239.09C173.39 241.09 163.471 246.338 156.032 250.344Z" fill="#11255A"/>
<path d="M156.032 250.344C105.757 277.415 95.4374 324.418 93.8478 338.47C83.293 389.336 78.4353 460.931 77.0619 537.993L75.3457 628.027C90.1611 636.267 98.6617 638.324 117.691 642.333C127.285 554.895 118.456 467.416 217.454 467.416C316.452 467.416 306.096 554.895 316.452 642.333C335.481 638.324 343.982 636.267 358.797 628.027L357.081 537.993C355.708 460.931 350.85 389.336 340.295 338.47C338.706 324.418 328.386 277.415 278.111 250.344C270.672 246.338 260.753 241.09 252.742 239.09C238.887 235.631 221.442 234.681 217.454 235.084C213.466 234.681 195.256 235.631 181.402 239.09C173.39 241.09 163.471 246.338 156.032 250.344Z" fill="url(#paint13_linear_2015_8233)" fill-opacity="0.2" style="mix-blend-mode:luminosity"/>
<ellipse cx="216.809" cy="367.273" rx="69.2419" ry="74.3921" fill="url(#paint14_radial_2015_8233)" style="mix-blend-mode:multiply"/>
<circle cx="216.809" cy="377.764" r="59.3229" fill="white" fill-opacity="0.1" style="mix-blend-mode:luminosity"/>
<rect x="255.15" y="664.46" width="1.90749" height="78.97" rx="0.953745" fill="#535353"/>
<rect x="255.15" y="664.46" width="1.90749" height="78.97" rx="0.953745" fill="url(#paint15_linear_2015_8233)" fill-opacity="0.22" style="mix-blend-mode:luminosity"/>
<rect width="3.81498" height="63.7101" transform="matrix(-1 0 0 1 255.15 672.09)" fill="#414141"/>
<rect width="3.81498" height="63.7101" transform="matrix(-1 0 0 1 255.15 672.09)" fill="url(#paint16_linear_2015_8233)" fill-opacity="0.14" style="mix-blend-mode:luminosity"/>
<rect x="181.902" y="554.588" width="69.8141" height="298.713" rx="26.7048" fill="url(#paint17_radial_2015_8233)"/>
<path d="M151.836 564.677C151.836 562.5 153.172 560.531 155.198 559.734C202.915 540.97 231.198 541.177 278.926 559.741C280.963 560.533 282.308 562.508 282.308 564.693V577.387C282.308 581.222 278.368 583.801 274.812 582.363C230.608 564.482 202.986 563.927 159.42 582.195C155.848 583.692 151.836 581.113 151.836 577.239V564.677Z" fill="#11255A"/>
<path d="M151.836 564.677C151.836 562.5 153.172 560.531 155.198 559.734C202.915 540.97 231.198 541.177 278.926 559.741C280.963 560.533 282.308 562.508 282.308 564.693V577.387C282.308 581.222 278.368 583.801 274.812 582.363C230.608 564.482 202.986 563.927 159.42 582.195C155.848 583.692 151.836 581.113 151.836 577.239V564.677Z" fill="url(#paint18_linear_2015_8233)" fill-opacity="0.48" style="mix-blend-mode:overlay"/>
<path d="M151.836 564.677C151.836 562.5 153.172 560.531 155.198 559.734C202.915 540.97 231.198 541.177 278.926 559.741C280.963 560.533 282.308 562.508 282.308 564.693V577.387C282.308 581.222 278.368 583.801 274.812 582.363C230.608 564.482 202.986 563.927 159.42 582.195C155.848 583.692 151.836 581.113 151.836 577.239V564.677Z" fill="black" fill-opacity="0.2"/>
<g filter="url(#filter1_d_2015_8233)">
<path d="M280.548 584.739C230.526 563.545 202.054 563.055 152.404 585.236C154.923 557.85 182.658 536.277 216.5 536.277C250.138 536.277 277.741 557.59 280.548 584.739Z" fill="#11255A"/>
<path d="M280.548 584.739C230.526 563.545 202.054 563.055 152.404 585.236C154.923 557.85 182.658 536.277 216.5 536.277C250.138 536.277 277.741 557.59 280.548 584.739Z" fill="url(#paint19_linear_2015_8233)" fill-opacity="0.2" style="mix-blend-mode:overlay"/>
</g>
<circle cx="216.809" cy="377.764" r="53.6004" fill="#1F1F1F"/>
<circle cx="216.809" cy="377.764" r="53.6004" fill="url(#paint20_radial_2015_8233)" fill-opacity="0.06"/>
<g filter="url(#filter2_f_2015_8233)">
<circle cx="216.809" cy="378.146" r="44.826" stroke="#868686" stroke-width="6.10396"/>
<circle cx="216.809" cy="378.146" r="44.826" stroke="url(#paint21_radial_2015_8233)" stroke-opacity="0.23" stroke-width="6.10396"/>
</g>
<circle cx="216.81" cy="377.765" r="23.4621" fill="black"/>
<circle cx="216.811" cy="377.765" r="20.4101" fill="#1D1D1D"/>
<g filter="url(#filter3_f_2015_8233)">
<circle cx="216.81" cy="377.764" r="15.0692" fill="#373737"/>
</g>
<g filter="url(#filter4_f_2015_8233)">
<ellipse cx="216.81" cy="377.765" rx="12.0172" ry="8.9652" fill="#484848"/>
</g>
<g filter="url(#filter5_i_2015_8233)">
<rect x="104.344" y="431.198" width="28.6939" height="14.1154" rx="6.10396" transform="rotate(-0.865125 104.344 431.198)" fill="#6F6F6F" fill-opacity="0.8"/>
<rect x="104.344" y="431.198" width="28.6939" height="14.1154" rx="6.10396" transform="rotate(-0.865125 104.344 431.198)" fill="#CEC089" fill-opacity="0.3"/>
</g>
<g filter="url(#filter6_i_2015_8233)">
<rect width="28.6939" height="14.1154" rx="6.10396" transform="matrix(-0.999886 -0.0150987 -0.0150987 0.999886 330.101 431.198)" fill="#6F6F6F" fill-opacity="0.8"/>
<rect width="28.6939" height="14.1154" rx="6.10396" transform="matrix(-0.999886 -0.0150987 -0.0150987 0.999886 330.101 431.198)" fill="#CEC089" fill-opacity="0.3"/>
</g>
<defs>
<filter id="filter0_f_2015_8233" x="99.6857" y="776.088" width="232.866" height="100.487" filterUnits="userSpaceOnUse" color-interpolation-filters="sRGB">
<feFlood flood-opacity="0" result="BackgroundImageFix"/>
<feBlend mode="normal" in="SourceGraphic" in2="BackgroundImageFix" result="shape"/>
<feGaussianBlur stdDeviation="4.33" result="effect1_foregroundBlur_2015_8233"/>
</filter>
<filter id="filter1_d_2015_8233" x="136.992" y="520.864" width="158.969" height="79.7843" filterUnits="userSpaceOnUse" color-interpolation-filters="sRGB">
<feFlood flood-opacity="0" result="BackgroundImageFix"/>
<feColorMatrix in="SourceAlpha" type="matrix" values="0 0 0 0 0 0 0 0 0 0 0 0 0 0 0 0 0 0 127 0" result="hardAlpha"/>
<feOffset/>
<feGaussianBlur stdDeviation="7.70626"/>
<feComposite in2="hardAlpha" operator="out"/>
<feColorMatrix type="matrix" values="0 0 0 0 0 0 0 0 0 0 0 0 0 0 0 0 0 0 0.39 0"/>
<feBlend mode="normal" in2="BackgroundImageFix" result="effect1_dropShadow_2015_8233"/>
<feBlend mode="normal" in="SourceGraphic" in2="effect1_dropShadow_2015_8233" result="shape"/>
</filter>
<filter id="filter2_f_2015_8233" x="168.169" y="329.505" width="97.2819" height="97.2821" filterUnits="userSpaceOnUse" color-interpolation-filters="sRGB">
<feFlood flood-opacity="0" result="BackgroundImageFix"/>
<feBlend mode="normal" in="SourceGraphic" in2="BackgroundImageFix" result="shape"/>
<feGaussianBlur stdDeviation="0.381498" result="effect1_foregroundBlur_2015_8233"/>
</filter>
<filter id="filter3_f_2015_8233" x="198.689" y="359.643" width="36.2426" height="36.2424" filterUnits="userSpaceOnUse" color-interpolation-filters="sRGB">
<feFlood flood-opacity="0" result="BackgroundImageFix"/>
<feBlend mode="normal" in="SourceGraphic" in2="BackgroundImageFix" result="shape"/>
<feGaussianBlur stdDeviation="1.52599" result="effect1_foregroundBlur_2015_8233"/>
</filter>
<filter id="filter4_f_2015_8233" x="201.741" y="365.747" width="30.1381" height="24.0344" filterUnits="userSpaceOnUse" color-interpolation-filters="sRGB">
<feFlood flood-opacity="0" result="BackgroundImageFix"/>
<feBlend mode="normal" in="SourceGraphic" in2="BackgroundImageFix" result="shape"/>
<feGaussianBlur stdDeviation="1.52599" result="effect1_foregroundBlur_2015_8233"/>
</filter>
<filter id="filter5_i_2015_8233" x="104.436" y="430.857" width="28.7207" height="15.1273" filterUnits="userSpaceOnUse" color-interpolation-filters="sRGB">
<feFlood flood-opacity="0" result="BackgroundImageFix"/>
<feBlend mode="normal" in="SourceGraphic" in2="BackgroundImageFix" result="shape"/>
<feColorMatrix in="SourceAlpha" type="matrix" values="0 0 0 0 0 0 0 0 0 0 0 0 0 0 0 0 0 0 127 0" result="hardAlpha"/>
<feOffset dy="0.762996"/>
<feGaussianBlur stdDeviation="0.381498"/>
<feComposite in2="hardAlpha" operator="arithmetic" k2="-1" k3="1"/>
<feColorMatrix type="matrix" values="0 0 0 0 0 0 0 0 0 0 0 0 0 0 0 0 0 0 0.1 0"/>
<feBlend mode="normal" in2="shape" result="effect1_innerShadow_2015_8233"/>
</filter>
<filter id="filter6_i_2015_8233" x="301.288" y="430.857" width="28.7207" height="15.1273" filterUnits="userSpaceOnUse" color-interpolation-filters="sRGB">
<feFlood flood-opacity="0" result="BackgroundImageFix"/>
<feBlend mode="normal" in="SourceGraphic" in2="BackgroundImageFix" result="shape"/>
<feColorMatrix in="SourceAlpha" type="matrix" values="0 0 0 0 0 0 0 0 0 0 0 0 0 0 0 0 0 0 127 0" result="hardAlpha"/>
<feOffset dy="0.762996"/>
<feGaussianBlur stdDeviation="0.381498"/>
<feComposite in2="hardAlpha" operator="arithmetic" k2="-1" k3="1"/>
<feColorMatrix type="matrix" values="0 0 0 0 0 0 0 0 0 0 0 0 0 0 0 0 0 0 0.1 0"/>
<feBlend mode="normal" in2="shape" result="effect1_innerShadow_2015_8233"/>
</filter>
<radialGradient id="paint0_radial_2015_8233" cx="0" cy="0" r="1" gradientUnits="userSpaceOnUse" gradientTransform="translate(107.773 41.5833) rotate(180) scale(107.773 41.5833)">
<stop offset="0.601383"/>
<stop offset="1" stop-opacity="0"/>
</radialGradient>
<radialGradient id="paint1_radial_2015_8233" cx="0" cy="0" r="1" gradientUnits="userSpaceOnUse" gradientTransform="translate(206.127 194.645) rotate(88.9456) scale(62.1947 54.3554)">
<stop stop-color="white"/>
<stop offset="1" stop-color="white" stop-opacity="0"/>
</radialGradient>
<radialGradient id="paint2_radial_2015_8233" cx="0" cy="0" r="1" gradientUnits="userSpaceOnUse" gradientTransform="translate(221.841 114.34) rotate(106.407) scale(139.789 145.224)">
<stop offset="0.458014" stop-color="#565656"/>
<stop offset="1"/>
</radialGradient>
<linearGradient id="paint3_linear_2015_8233" x1="225.465" y1="216.772" x2="225.465" y2="180.911" gradientUnits="userSpaceOnUse">
<stop/>
<stop offset="0.614499" stop-color="white" stop-opacity="0"/>
<stop offset="1"/>
</linearGradient>
<radialGradient id="paint4_radial_2015_8233" cx="0" cy="0" r="1" gradientUnits="userSpaceOnUse" gradientTransform="translate(47.4965 40.9018) rotate(96.836) scale(82.8641 58.782)">
<stop stop-color="white"/>
<stop offset="1" stop-color="white" stop-opacity="0"/>
</radialGradient>
<radialGradient id="paint5_radial_2015_8233" cx="0" cy="0" r="1" gradientUnits="userSpaceOnUse" gradientTransform="translate(424.687 76.2253) rotate(99.9741) scale(84.3167 52.274)">
<stop stop-color="white"/>
<stop offset="1" stop-color="white" stop-opacity="0"/>
</radialGradient>
<linearGradient id="paint6_linear_2015_8233" x1="7.42405" y1="28.7664" x2="0" y2="28.7664" gradientUnits="userSpaceOnUse">
<stop stop-color="#202020"/>
<stop offset="0.454302" stop-color="#434343"/>
<stop offset="1" stop-color="#272727"/>
</linearGradient>
<linearGradient id="paint7_linear_2015_8233" x1="16.6516" y1="63.5215" x2="0" y2="63.5215" gradientUnits="userSpaceOnUse">
<stop stop-color="#202020"/>
<stop offset="0.454302" stop-color="#434343"/>
<stop offset="1" stop-color="#272727"/>
</linearGradient>
<linearGradient id="paint8_linear_2015_8233" x1="16.6516" y1="10.0396" x2="0" y2="10.0396" gradientUnits="userSpaceOnUse">
<stop stop-color="#202020"/>
<stop offset="0.454302" stop-color="#434343"/>
<stop offset="1" stop-color="#272727"/>
</linearGradient>
<linearGradient id="paint9_linear_2015_8233" x1="16.6516" y1="10.0396" x2="0" y2="10.0396" gradientUnits="userSpaceOnUse">
<stop stop-color="#202020"/>
<stop offset="0.454302" stop-color="#434343"/>
<stop offset="1" stop-color="#272727"/>
</linearGradient>
<linearGradient id="paint10_linear_2015_8233" x1="173.136" y1="585.86" x2="154.062" y2="585.86" gradientUnits="userSpaceOnUse">
<stop stop-color="#202020"/>
<stop offset="0.454302" stop-color="#434343"/>
<stop offset="1" stop-color="#272727"/>
</linearGradient>
<linearGradient id="paint11_linear_2015_8233" x1="289.917" y1="585.841" x2="282.493" y2="585.841" gradientUnits="userSpaceOnUse">
<stop stop-color="#202020"/>
<stop offset="0.454302" stop-color="#434343"/>
<stop offset="1" stop-color="#272727"/>
</linearGradient>
<linearGradient id="paint12_linear_2015_8233" x1="19.0749" y1="121.788" x2="0" y2="121.788" gradientUnits="userSpaceOnUse">
<stop stop-color="#202020"/>
<stop offset="0.454302" stop-color="#434343"/>
<stop offset="1" stop-color="#272727"/>
</linearGradient>
<linearGradient id="paint13_linear_2015_8233" x1="291.273" y1="359.452" x2="140.01" y2="472.185" gradientUnits="userSpaceOnUse">
<stop stop-color="white" stop-opacity="0.77"/>
<stop offset="1"/>
</linearGradient>
<radialGradient id="paint14_radial_2015_8233" cx="0" cy="0" r="1" gradientUnits="userSpaceOnUse" gradientTransform="translate(216.809 371.204) rotate(-90) scale(78.3229 64.4275)">
<stop stop-opacity="0.4"/>
<stop offset="1" stop-opacity="0"/>
</radialGradient>
<linearGradient id="paint15_linear_2015_8233" x1="255.15" y1="671.899" x2="259.919" y2="732.557" gradientUnits="userSpaceOnUse">
<stop stop-color="white"/>
<stop offset="1" stop-color="white" stop-opacity="0"/>
</linearGradient>
<linearGradient id="paint16_linear_2015_8233" x1="-5.7767e-08" y1="6.00168" x2="1.55992" y2="55.1914" gradientUnits="userSpaceOnUse">
<stop stop-color="white"/>
<stop offset="1" stop-color="white" stop-opacity="0"/>
</linearGradient>
<radialGradient id="paint17_radial_2015_8233" cx="0" cy="0" r="1" gradientUnits="userSpaceOnUse" gradientTransform="translate(217 584.727) rotate(90.0407) scale(268.575 149.531)">
<stop/>
<stop offset="0.331304" stop-color="#373737"/>
<stop offset="1"/>
</radialGradient>
<linearGradient id="paint18_linear_2015_8233" x1="282.308" y1="565.615" x2="151.836" y2="565.615" gradientUnits="userSpaceOnUse">
<stop stop-color="white"/>
<stop offset="1"/>
</linearGradient>
<linearGradient id="paint19_linear_2015_8233" x1="280.548" y1="560.756" x2="152.404" y2="560.756" gradientUnits="userSpaceOnUse">
<stop stop-color="white"/>
<stop offset="1"/>
</linearGradient>
<radialGradient id="paint20_radial_2015_8233" cx="0" cy="0" r="1" gradientUnits="userSpaceOnUse" gradientTransform="translate(239.127 404.851) rotate(-105.905) scale(36.8915 26.5393)">
<stop stop-color="white"/>
<stop offset="1"/>
</radialGradient>
<radialGradient id="paint21_radial_2015_8233" cx="0" cy="0" r="1" gradientUnits="userSpaceOnUse" gradientTransform="translate(203.457 314.817) rotate(81.9473) scale(59.9137)">
<stop stop-color="white"/>
<stop offset="1"/>
</radialGradient>
</defs>
</svg>
