<svg width="1055" height="869" viewBox="0 0 1055 869" fill="none" xmlns="http://www.w3.org/2000/svg">
<g filter="url(#filter0_f_2022_28205)">
<ellipse cx="412.5" cy="7" rx="412.5" ry="7" transform="matrix(-1 0 0 1 1006 780)" fill="black" fill-opacity="0.3"/>
</g>
<g filter="url(#filter1_f_2022_28205)">
<rect x="1030" y="788.304" width="904" height="39" rx="19.5" transform="rotate(180 1030 788.304)" fill="url(#paint0_radial_2022_28205)" fill-opacity="0.29"/>
</g>
<ellipse cx="18.3603" cy="47.592" rx="18.3603" ry="47.592" transform="matrix(-0.999953 0.00970399 0.00970399 0.999953 222.543 315.136)" fill="#555555"/>
<ellipse cx="18.3603" cy="47.592" rx="18.3603" ry="47.592" transform="matrix(-0.999953 0.00970399 0.00970399 0.999953 222.543 315.136)" fill="url(#paint1_radial_2022_28205)" fill-opacity="0.2"/>
<path d="M351.77 346.803C351.893 346.404 352.253 346.113 352.67 346.131C353.315 346.16 353.773 346.305 354.266 346.591C354.632 346.803 354.777 347.25 354.66 347.657L347.542 372.352C347.514 372.45 347.472 372.545 347.408 372.624C346.975 373.157 346.135 373.549 345.651 373.525C345.549 373.52 345.447 373.5 345.344 373.5H338.312C337.652 373.5 337.173 372.871 337.348 372.234L340.772 359.821C340.903 359.348 341.358 359.041 341.847 359.088C344.121 359.308 345.535 359.298 347.366 359.081C347.752 359.035 348.073 358.762 348.188 358.39L351.77 346.803Z" fill="#1E1E1E"/>
<g filter="url(#filter2_i_2022_28205)">
<path d="M891.413 343.23L613.823 357.756C567.838 361.123 526 409.196 526 455.304L536.5 591.804C536.5 602.849 533.046 610.304 522 610.304L394.415 608.143C371.523 608.143 351.324 593.174 344.664 571.272L319.402 488.199C314.706 472.757 314.504 456.297 318.819 440.744L377.014 230.994C382.138 212.526 361.876 197.41 345.633 207.582L318.819 224.374L282.558 275.537C276.07 284.692 267.825 292.455 258.063 297.989C234.52 311.334 207.136 326.775 207.136 350.769L219.182 443.672C219.182 448.858 215.247 456.473 213.574 463.013C212.332 467.864 213.335 472.955 213.751 477.945L220.886 563.51C221.63 572.433 222.976 581.342 226.032 589.759C241.78 633.14 276.542 667.289 320.78 682.054L346.975 690.797C355.651 693.693 364.739 695.17 373.886 695.17H632.413C691.219 695.17 747.924 673.308 791.51 633.832L945.598 494.275C966.543 475.305 988.107 452.976 987.76 424.718C987.196 378.917 946.436 339.2 891.413 343.23Z" fill="url(#paint2_radial_2022_28205)"/>
</g>
<path d="M192.24 455.463C193.002 479.242 220.468 598.552 237.85 623.304C259.126 623.304 273.309 621.774 286.937 619.966C273.448 591.182 258.43 543.903 254.12 500.239C247.365 431.824 272.336 352.84 283.738 317.52C292.088 291.655 310.993 237.841 323.23 225.604C311.55 221.293 281.514 264.539 262.185 283.451C248.974 295.409 209.761 306.812 195.855 315.155C189.598 324.472 193.769 402.622 196.828 429.32C195.855 437.107 191.741 439.889 192.24 455.463Z" fill="#CBFAFF"/>
<path d="M192.24 455.463C193.002 479.242 220.468 598.552 237.85 623.304C259.126 623.304 273.309 621.774 286.937 619.966C273.448 591.182 258.43 543.903 254.12 500.239C247.365 431.824 272.336 352.84 283.738 317.52C292.088 291.655 310.993 237.841 323.23 225.604C311.55 221.293 281.514 264.539 262.185 283.451C248.974 295.409 209.761 306.812 195.855 315.155C189.598 324.472 193.769 402.622 196.828 429.32C195.855 437.107 191.741 439.889 192.24 455.463Z" fill="url(#paint3_linear_2022_28205)" fill-opacity="0.3" style="mix-blend-mode:luminosity"/>
<path d="M192.24 455.463C193.002 479.242 220.468 598.552 237.85 623.304C259.126 623.304 273.309 621.774 286.937 619.966C273.448 591.182 258.43 543.903 254.12 500.239C247.365 431.824 272.336 352.84 283.738 317.52C292.088 291.655 310.993 237.841 323.23 225.604C311.55 221.293 281.514 264.539 262.185 283.451C248.974 295.409 209.761 306.812 195.855 315.155C189.598 324.472 193.769 402.622 196.828 429.32C195.855 437.107 191.741 439.889 192.24 455.463Z" fill="url(#paint4_linear_2022_28205)" fill-opacity="0.2" style="mix-blend-mode:luminosity"/>
<g filter="url(#filter3_i_2022_28205)">
<rect width="20.0241" height="10.8464" rx="5.42318" transform="matrix(-0.999603 -0.0281672 -0.0281672 0.999603 230.891 424.016)" fill="#6F6F6F" fill-opacity="0.8"/>
<rect width="20.0241" height="10.8464" rx="5.42318" transform="matrix(-0.999603 -0.0281672 -0.0281672 0.999603 230.891 424.016)" fill="#CEC089" fill-opacity="0.3"/>
</g>
<path fill-rule="evenodd" clip-rule="evenodd" d="M196.145 413.448C188.586 407.538 182.959 389.487 182.752 368.082C182.551 347.395 187.472 329.742 194.521 323.114C192.108 341.887 193.961 385.665 196.145 413.448Z" fill="#555555"/>
<path fill-rule="evenodd" clip-rule="evenodd" d="M196.145 413.448C188.586 407.538 182.959 389.487 182.752 368.082C182.551 347.395 187.472 329.742 194.521 323.114C192.108 341.887 193.961 385.665 196.145 413.448Z" fill="url(#paint5_radial_2022_28205)" fill-opacity="0.2"/>
<path fill-rule="evenodd" clip-rule="evenodd" d="M910.4 529.443C923.399 517.514 936.634 505.088 950.782 491.46C968.436 474.454 986.211 454.981 988 430.534C990.431 397.319 970.624 367.628 937.117 352.928C922.073 367.526 892.995 374.958 855.214 384.615C842.527 387.858 828.859 391.352 814.411 395.452C803.022 398.684 788.726 402.993 772.544 407.87C696.644 430.745 579.262 466.123 525.807 461.541L535.263 587.304C535.263 588.649 535.182 589.975 535.02 591.268C567.534 599.915 635.82 589.814 716.724 574.105C770.347 563.693 851.012 544.298 910.4 529.443Z" fill="#CBFAFF"/>
<path fill-rule="evenodd" clip-rule="evenodd" d="M910.4 529.443C923.399 517.514 936.634 505.088 950.782 491.46C968.436 474.454 986.211 454.981 988 430.534C990.431 397.319 970.624 367.628 937.117 352.928C922.073 367.526 892.995 374.958 855.214 384.615C842.527 387.858 828.859 391.352 814.411 395.452C803.022 398.684 788.726 402.993 772.544 407.87C696.644 430.745 579.262 466.123 525.807 461.541L535.263 587.304C535.263 588.649 535.182 589.975 535.02 591.268C567.534 599.915 635.82 589.814 716.724 574.105C770.347 563.693 851.012 544.298 910.4 529.443Z" fill="url(#paint6_radial_2022_28205)" fill-opacity="0.5" style="mix-blend-mode:luminosity"/>
<path d="M975.474 349.352C974.852 349.128 974.152 349.144 973.542 349.398C919.419 371.837 882.867 382.061 815.378 398.38C809.461 399.81 805.894 405.882 807.566 411.735V411.735C809.187 417.407 815.094 420.697 820.77 419.088L1000.3 368.19C1002.35 367.61 1003.2 365.166 1001.84 363.534C995.156 355.539 989.411 354.376 975.474 349.352Z" fill="#111111"/>
<g filter="url(#filter4_f_2022_28205)">
<path d="M988 422.891C987.559 412.161 984.916 401.801 980.407 392.304L938.22 403.167C929.792 405.337 924.719 413.928 926.89 422.356C929.06 430.784 937.651 435.856 946.079 433.686L988 422.891Z" fill="#D5A455" fill-opacity="0.3"/>
<path d="M988 422.891C987.559 412.161 984.916 401.801 980.407 392.304L938.22 403.167C929.792 405.337 924.719 413.928 926.89 422.356C929.06 430.784 937.651 435.856 946.079 433.686L988 422.891Z" stroke="black" stroke-opacity="0.1" stroke-linecap="round" stroke-linejoin="round"/>
</g>
<g filter="url(#filter5_f_2022_28205)">
<path d="M987.527 416.94C986.747 410.33 985.129 403.9 982.759 397.771L939.788 408.836C934.506 410.197 931.327 415.581 932.687 420.863C934.047 426.146 939.432 429.325 944.714 427.965L987.527 416.94Z" fill="#640600" fill-opacity="0.8"/>
</g>
<g filter="url(#filter6_f_2022_28205)">
<path d="M959.305 408.215C958.78 406.069 956.616 404.755 954.47 405.279L940.31 408.738C934.9 410.059 931.586 415.516 932.908 420.926V420.926C934.229 426.335 939.686 429.649 945.095 428.328L959.255 424.869C961.401 424.344 962.716 422.18 962.192 420.034L959.305 408.215Z" fill="#FFBF65" fill-opacity="0.15"/>
</g>
<path d="M391.93 72.1455L375.686 130.218C373.708 137.286 373.002 144.649 373.599 151.964L376.543 188.026" stroke="#151515" stroke-width="8" stroke-linecap="round" stroke-linejoin="round"/>
<path d="M391.93 72.1455L375.686 130.218C373.708 137.286 373.002 144.649 373.599 151.964L376.543 188.026" stroke="url(#paint7_linear_2022_28205)" stroke-opacity="0.2" stroke-width="8" stroke-linecap="round" stroke-linejoin="round"/>
<ellipse cx="16.0396" cy="37.788" rx="16.0396" ry="37.788" transform="matrix(-1 0 0 1 418.766 17.0332)" fill="#151515"/>
<ellipse cx="16.0396" cy="37.788" rx="16.0396" ry="37.788" transform="matrix(-1 0 0 1 418.766 17.0332)" fill="url(#paint8_radial_2022_28205)" fill-opacity="0.15"/>
<rect width="18.8804" height="87.3091" rx="5" transform="matrix(-0.866025 0.5 0.5 0.866025 350.109 148.7)" fill="#292929"/>
<path d="M417.745 151.946C425.97 148.716 435.256 152.766 438.485 160.992C441.714 169.217 437.664 178.503 429.439 181.732L417.745 151.946ZM381.053 183.54L366.405 177.102C368.106 173.231 371.27 170.191 375.206 168.646L381.053 183.54ZM429.439 181.732L386.9 198.433L375.206 168.646L417.745 151.946L429.439 181.732ZM395.701 189.977L370.322 247.723L341.026 234.848L366.405 177.102L395.701 189.977Z" fill="#151515"/>
<path d="M417.745 151.946C425.97 148.716 435.256 152.766 438.485 160.992C441.714 169.217 437.664 178.503 429.439 181.732L417.745 151.946ZM381.053 183.54L366.405 177.102C368.106 173.231 371.27 170.191 375.206 168.646L381.053 183.54ZM429.439 181.732L386.9 198.433L375.206 168.646L417.745 151.946L429.439 181.732ZM395.701 189.977L370.322 247.723L341.026 234.848L366.405 177.102L395.701 189.977Z" fill="url(#paint9_linear_2022_28205)" fill-opacity="0.1"/>
<defs>
<filter id="filter0_f_2022_28205" x="164.6" y="763.6" width="857.8" height="46.8" filterUnits="userSpaceOnUse" color-interpolation-filters="sRGB">
<feFlood flood-opacity="0" result="BackgroundImageFix"/>
<feBlend mode="normal" in="SourceGraphic" in2="BackgroundImageFix" result="shape"/>
<feGaussianBlur stdDeviation="8.2" result="effect1_foregroundBlur_2022_28205"/>
</filter>
<filter id="filter1_f_2022_28205" x="117.34" y="740.644" width="921.32" height="56.32" filterUnits="userSpaceOnUse" color-interpolation-filters="sRGB">
<feFlood flood-opacity="0" result="BackgroundImageFix"/>
<feBlend mode="normal" in="SourceGraphic" in2="BackgroundImageFix" result="shape"/>
<feGaussianBlur stdDeviation="4.33" result="effect1_foregroundBlur_2022_28205"/>
</filter>
<filter id="filter2_i_2022_28205" x="207.137" y="204.306" width="780.627" height="490.863" filterUnits="userSpaceOnUse" color-interpolation-filters="sRGB">
<feFlood flood-opacity="0" result="BackgroundImageFix"/>
<feBlend mode="normal" in="SourceGraphic" in2="BackgroundImageFix" result="shape"/>
<feColorMatrix in="SourceAlpha" type="matrix" values="0 0 0 0 0 0 0 0 0 0 0 0 0 0 0 0 0 0 127 0" result="hardAlpha"/>
<feOffset/>
<feGaussianBlur stdDeviation="5"/>
<feComposite in2="hardAlpha" operator="arithmetic" k2="-1" k3="1"/>
<feColorMatrix type="matrix" values="0 0 0 0 0 0 0 0 0 0 0 0 0 0 0 0 0 0 0.5 0"/>
<feBlend mode="normal" in2="shape" result="effect1_innerShadow_2022_28205"/>
</filter>
<filter id="filter3_i_2022_28205" x="210.719" y="423.602" width="20.0215" height="13.105" filterUnits="userSpaceOnUse" color-interpolation-filters="sRGB">
<feFlood flood-opacity="0" result="BackgroundImageFix"/>
<feBlend mode="normal" in="SourceGraphic" in2="BackgroundImageFix" result="shape"/>
<feColorMatrix in="SourceAlpha" type="matrix" values="0 0 0 0 0 0 0 0 0 0 0 0 0 0 0 0 0 0 127 0" result="hardAlpha"/>
<feOffset dy="2"/>
<feGaussianBlur stdDeviation="1"/>
<feComposite in2="hardAlpha" operator="arithmetic" k2="-1" k3="1"/>
<feColorMatrix type="matrix" values="0 0 0 0 0 0 0 0 0 0 0 0 0 0 0 0 0 0 0.1 0"/>
<feBlend mode="normal" in2="shape" result="effect1_innerShadow_2022_28205"/>
</filter>
<filter id="filter4_f_2022_28205" x="924.889" y="390.804" width="64.6113" height="44.8843" filterUnits="userSpaceOnUse" color-interpolation-filters="sRGB">
<feFlood flood-opacity="0" result="BackgroundImageFix"/>
<feBlend mode="normal" in="SourceGraphic" in2="BackgroundImageFix" result="shape"/>
<feGaussianBlur stdDeviation="0.5" result="effect1_foregroundBlur_2022_28205"/>
</filter>
<filter id="filter5_f_2022_28205" x="931.373" y="396.771" width="57.1543" height="32.5078" filterUnits="userSpaceOnUse" color-interpolation-filters="sRGB">
<feFlood flood-opacity="0" result="BackgroundImageFix"/>
<feBlend mode="normal" in="SourceGraphic" in2="BackgroundImageFix" result="shape"/>
<feGaussianBlur stdDeviation="0.5" result="effect1_foregroundBlur_2022_28205"/>
</filter>
<filter id="filter6_f_2022_28205" x="931.117" y="403.664" width="32.6895" height="26.4546" filterUnits="userSpaceOnUse" color-interpolation-filters="sRGB">
<feFlood flood-opacity="0" result="BackgroundImageFix"/>
<feBlend mode="normal" in="SourceGraphic" in2="BackgroundImageFix" result="shape"/>
<feGaussianBlur stdDeviation="0.75" result="effect1_foregroundBlur_2022_28205"/>
</filter>
<radialGradient id="paint0_radial_2022_28205" cx="0" cy="0" r="1" gradientUnits="userSpaceOnUse" gradientTransform="translate(1482 807.804) rotate(180) scale(452 19.5)">
<stop offset="0.601383" stop-color="#00D0FF"/>
<stop offset="1" stop-color="#006F88" stop-opacity="0"/>
</radialGradient>
<radialGradient id="paint1_radial_2022_28205" cx="0" cy="0" r="1" gradientUnits="userSpaceOnUse" gradientTransform="translate(28.51 47.8931) rotate(-0.556016) scale(8.5 30.1455)">
<stop stop-color="white"/>
<stop offset="1" stop-color="white" stop-opacity="0"/>
</radialGradient>
<radialGradient id="paint2_radial_2022_28205" cx="0" cy="0" r="1" gradientUnits="userSpaceOnUse" gradientTransform="translate(597 404) rotate(87.8352) scale(291.208 758.687)">
<stop stop-color="#0F0F0F"/>
<stop offset="0.805869" stop-color="#0F0F0F"/>
<stop offset="0.852982" stop-color="#202020"/>
<stop offset="0.857581" stop-color="#202020"/>
<stop offset="0.970441" stop-color="#1D4652"/>
</radialGradient>
<linearGradient id="paint3_linear_2022_28205" x1="218.005" y1="583.315" x2="366.425" y2="435.573" gradientUnits="userSpaceOnUse">
<stop/>
<stop offset="1" stop-color="white" stop-opacity="0.5"/>
</linearGradient>
<linearGradient id="paint4_linear_2022_28205" x1="237.564" y1="355.213" x2="222.229" y2="348.979" gradientUnits="userSpaceOnUse">
<stop stop-opacity="0"/>
<stop offset="1"/>
</linearGradient>
<radialGradient id="paint5_radial_2022_28205" cx="0" cy="0" r="1" gradientUnits="userSpaceOnUse" gradientTransform="translate(190.965 368.304) rotate(-180) scale(8.5 30.1455)">
<stop stop-color="white"/>
<stop offset="1" stop-color="white" stop-opacity="0"/>
</radialGradient>
<radialGradient id="paint6_radial_2022_28205" cx="0" cy="0" r="1" gradientUnits="userSpaceOnUse" gradientTransform="translate(730.27 474.07) rotate(-10.69) scale(262.487 207.365)">
<stop offset="0.615072" stop-color="#363636" stop-opacity="0"/>
<stop offset="1"/>
</radialGradient>
<linearGradient id="paint7_linear_2022_28205" x1="399.835" y1="104.037" x2="378.357" y2="98.1438" gradientUnits="userSpaceOnUse">
<stop stop-color="white"/>
<stop offset="1" stop-color="white" stop-opacity="0"/>
</linearGradient>
<radialGradient id="paint8_radial_2022_28205" cx="0" cy="0" r="1" gradientUnits="userSpaceOnUse" gradientTransform="translate(25.5547 30.9916) rotate(102.047) scale(45.5884 19.3505)">
<stop stop-color="white"/>
<stop offset="1" stop-color="white" stop-opacity="0"/>
</radialGradient>
<linearGradient id="paint9_linear_2022_28205" x1="371.037" y1="205.078" x2="439.534" y2="174.634" gradientUnits="userSpaceOnUse">
<stop stop-color="white" stop-opacity="0"/>
<stop offset="1" stop-color="white"/>
</linearGradient>
</defs>
</svg>
