<svg width="1055" height="869" viewBox="0 0 1055 869" fill="none" xmlns="http://www.w3.org/2000/svg">
<g filter="url(#filter0_f_2022_28193)">
<rect width="989.688" height="6.62427" rx="3.31213" transform="matrix(-1 0 0 1 1030.27 780.38)" fill="black"/>
</g>
<g filter="url(#filter1_i_2022_28193)">
<circle cx="125.059" cy="125.059" r="125.059" transform="matrix(-1 0 0 1 1051.15 535.59)" fill="#111111"/>
<circle cx="125.059" cy="125.059" r="125.059" transform="matrix(-1 0 0 1 1051.15 535.59)" fill="url(#paint0_linear_2022_28193)"/>
</g>
<path fill-rule="evenodd" clip-rule="evenodd" d="M926.357 785.708C857.288 785.708 801.297 729.718 801.297 660.649C801.297 591.581 857.288 535.59 926.357 535.59C995.425 535.59 1051.42 591.581 1051.42 660.649C1051.42 729.718 995.425 785.708 926.357 785.708ZM926.357 728.321C888.983 728.321 858.685 698.023 858.685 660.649C858.685 623.275 888.983 592.977 926.357 592.977C963.731 592.977 994.028 623.275 994.028 660.649C994.028 698.023 963.731 728.321 926.357 728.321Z" fill="url(#paint1_radial_2022_28193)"/>
<circle cx="63.4982" cy="63.4982" r="63.4982" transform="matrix(-1 0 0 1 989.585 597.151)" fill="#111111"/>
<circle cx="63.4982" cy="63.4982" r="63.4982" transform="matrix(-1 0 0 1 989.585 597.151)" fill="url(#paint2_radial_2022_28193)" fill-opacity="0.1"/>
<circle cx="63.4982" cy="63.4982" r="75.4982" transform="matrix(-1 0 0 1 989.585 597.151)" stroke="black" stroke-opacity="0.5" stroke-width="24"/>
<circle cx="14.2715" cy="14.2715" r="14.2715" transform="matrix(-1 0 0 1 155.628 646.378)" fill="#111111"/>
<path fill-rule="evenodd" clip-rule="evenodd" d="M141.357 785.708C72.2883 785.708 16.2974 729.718 16.2974 660.649C16.2974 591.581 72.2883 535.59 141.357 535.59C210.425 535.59 266.416 591.581 266.416 660.649C266.416 729.718 210.425 785.708 141.357 785.708ZM141.357 728.321C103.983 728.321 73.6851 698.023 73.6851 660.649C73.6851 623.275 103.983 592.977 141.357 592.977C178.731 592.977 209.028 623.275 209.028 660.649C209.028 698.023 178.731 728.321 141.357 728.321Z" fill="url(#paint3_radial_2022_28193)"/>
<path fill-rule="evenodd" clip-rule="evenodd" d="M141.356 741.321C96.8019 741.321 60.684 705.203 60.684 660.649C60.684 616.095 96.8019 579.978 141.356 579.978C185.909 579.978 222.027 616.095 222.027 660.649C222.027 705.203 185.909 741.321 141.356 741.321ZM130.821 727.506C134.254 728.042 137.772 728.321 141.356 728.321C151.219 728.321 160.589 726.211 169.04 722.417L142.864 672.469L130.821 727.506ZM123.97 726.067C111.024 722.635 99.6 715.462 90.926 705.776L136.026 670.972L123.97 726.067ZM86.53 700.326L131.749 665.431L73.726 663.057C74.212 676.954 78.8882 689.785 86.53 700.326ZM73.8374 656.056L132.035 658.437L88.3261 618.605C80.05 629.03 74.7828 641.951 73.8374 656.056ZM92.9556 613.353L136.75 653.264L128.801 594.14C114.881 596.751 102.464 603.625 92.9556 613.353ZM135.739 593.207L143.687 652.329L175.444 602.178C165.434 596.329 153.786 592.978 141.356 592.978C139.464 592.978 137.591 593.055 135.739 593.207ZM181.299 606.017C192.257 614.043 200.71 625.285 205.269 638.354L149.602 656.074L181.299 606.017ZM207.227 645.077C208.404 650.077 209.027 655.29 209.027 660.649C209.027 669.051 207.496 677.094 204.698 684.517L151.725 662.744L207.227 645.077ZM201.891 690.931C195.963 702.758 186.67 712.607 175.269 719.223L149.064 669.219L201.891 690.931ZM142.215 662.466L142.711 661.922L143.236 662.254L142.238 664.682L142.126 664.657L142.215 662.466Z" fill="url(#paint4_radial_2022_28193)"/>
<path fill-rule="evenodd" clip-rule="evenodd" d="M141.5 711C113.61 711 91 688.39 91 660.5C91 632.61 113.61 610 141.5 610C169.39 610 192 632.61 192 660.5C192 688.39 169.39 711 141.5 711ZM141.5 689.81C157.688 689.81 170.81 676.688 170.81 660.5C170.81 644.312 157.688 631.19 141.5 631.19C125.312 631.19 112.19 644.312 112.19 660.5C112.19 676.688 125.312 689.81 141.5 689.81ZM124.661 627.917C124.849 629.563 123.666 631.049 122.02 631.237C120.373 631.424 118.887 630.241 118.7 628.595L117.569 618.659C117.382 617.013 118.565 615.526 120.211 615.339C121.857 615.152 123.343 616.335 123.531 617.981L124.661 627.917ZM114.304 644.593C115.162 643.176 114.708 641.331 113.29 640.474L104.733 635.299C103.315 634.441 101.471 634.896 100.613 636.313C99.756 637.731 100.21 639.576 101.628 640.433L110.185 645.608C111.603 646.465 113.447 646.011 114.304 644.593ZM107.318 654.563C108.942 654.891 109.992 656.474 109.664 658.098C109.336 659.722 107.754 660.773 106.13 660.445L96.3276 658.465C94.7036 658.137 93.6529 656.554 93.981 654.93C94.309 653.306 95.8915 652.256 97.5155 652.584L107.318 654.563ZM111.185 676.332C112.839 676.439 114.092 677.867 113.984 679.52C113.876 681.174 112.448 682.427 110.795 682.319L100.816 681.668C99.1629 681.56 97.91 680.133 98.0178 678.479C98.1256 676.826 99.5533 675.573 101.207 675.681L111.185 676.332ZM137.43 704.297C138.584 705.486 140.484 705.514 141.673 704.36L148.848 697.395C150.037 696.241 150.065 694.342 148.911 693.153C147.757 691.964 145.858 691.935 144.669 693.089L137.494 700.054C136.305 701.208 136.276 703.108 137.43 704.297ZM166.951 696.442C166.817 698.093 165.37 699.324 163.718 699.19C162.067 699.056 160.836 697.609 160.97 695.957L161.778 685.99C161.912 684.339 163.359 683.108 165.01 683.242C166.662 683.376 167.892 684.823 167.758 686.475L166.951 696.442ZM181.145 685.15C182.722 684.642 183.589 682.952 183.081 681.375L180.017 671.856C179.509 670.279 177.819 669.412 176.242 669.919C174.665 670.427 173.798 672.117 174.306 673.694L177.37 683.213C177.877 684.79 179.568 685.657 181.145 685.15ZM181.124 637.697C182.713 638.168 183.618 639.837 183.147 641.426C182.676 643.014 181.007 643.92 179.418 643.449L169.831 640.605C168.242 640.134 167.337 638.465 167.808 636.876C168.279 635.288 169.949 634.382 171.537 634.853L181.124 637.697ZM188.108 662.42C189.153 661.134 188.958 659.245 187.672 658.2L179.913 651.892C178.627 650.847 176.738 651.042 175.692 652.328C174.647 653.614 174.842 655.503 176.128 656.548L183.888 662.856C185.174 663.901 187.063 663.706 188.108 662.42ZM165.746 622.268C167.247 621.568 169.032 622.217 169.733 623.719C170.433 625.22 169.784 627.005 168.282 627.706L159.22 631.933C157.718 632.634 155.933 631.984 155.233 630.483C154.532 628.981 155.182 627.196 156.683 626.496L165.746 622.268ZM113.907 696.114C114.453 697.678 116.165 698.502 117.729 697.955L127.168 694.654C128.732 694.107 129.557 692.396 129.01 690.832C128.463 689.268 126.751 688.443 125.187 688.99L115.748 692.292C114.184 692.839 113.36 694.55 113.907 696.114Z" fill="url(#paint5_linear_2022_28193)"/>
<path fill-rule="evenodd" clip-rule="evenodd" d="M141.5 711C113.61 711 91 688.39 91 660.5C91 632.61 113.61 610 141.5 610C169.39 610 192 632.61 192 660.5C192 688.39 169.39 711 141.5 711ZM141.5 689.81C157.688 689.81 170.81 676.688 170.81 660.5C170.81 644.312 157.688 631.19 141.5 631.19C125.312 631.19 112.19 644.312 112.19 660.5C112.19 676.688 125.312 689.81 141.5 689.81ZM124.661 627.917C124.849 629.563 123.666 631.049 122.02 631.237C120.373 631.424 118.887 630.241 118.7 628.595L117.569 618.659C117.382 617.013 118.565 615.526 120.211 615.339C121.857 615.152 123.343 616.335 123.531 617.981L124.661 627.917ZM114.304 644.593C115.162 643.176 114.708 641.331 113.29 640.474L104.733 635.299C103.315 634.441 101.471 634.896 100.613 636.313C99.756 637.731 100.21 639.576 101.628 640.433L110.185 645.608C111.603 646.465 113.447 646.011 114.304 644.593ZM107.318 654.563C108.942 654.891 109.992 656.474 109.664 658.098C109.336 659.722 107.754 660.773 106.13 660.445L96.3276 658.465C94.7036 658.137 93.6529 656.554 93.981 654.93C94.309 653.306 95.8915 652.256 97.5155 652.584L107.318 654.563ZM111.185 676.332C112.839 676.439 114.092 677.867 113.984 679.52C113.876 681.174 112.448 682.427 110.795 682.319L100.816 681.668C99.1629 681.56 97.91 680.133 98.0178 678.479C98.1256 676.826 99.5533 675.573 101.207 675.681L111.185 676.332ZM137.43 704.297C138.584 705.486 140.484 705.514 141.673 704.36L148.848 697.395C150.037 696.241 150.065 694.342 148.911 693.153C147.757 691.964 145.858 691.935 144.669 693.089L137.494 700.054C136.305 701.208 136.276 703.108 137.43 704.297ZM166.951 696.442C166.817 698.093 165.37 699.324 163.718 699.19C162.067 699.056 160.836 697.609 160.97 695.957L161.778 685.99C161.912 684.339 163.359 683.108 165.01 683.242C166.662 683.376 167.892 684.823 167.758 686.475L166.951 696.442ZM181.145 685.15C182.722 684.642 183.589 682.952 183.081 681.375L180.017 671.856C179.509 670.279 177.819 669.412 176.242 669.919C174.665 670.427 173.798 672.117 174.306 673.694L177.37 683.213C177.877 684.79 179.568 685.657 181.145 685.15ZM181.124 637.697C182.713 638.168 183.618 639.837 183.147 641.426C182.676 643.014 181.007 643.92 179.418 643.449L169.831 640.605C168.242 640.134 167.337 638.465 167.808 636.876C168.279 635.288 169.949 634.382 171.537 634.853L181.124 637.697ZM188.108 662.42C189.153 661.134 188.958 659.245 187.672 658.2L179.913 651.892C178.627 650.847 176.738 651.042 175.692 652.328C174.647 653.614 174.842 655.503 176.128 656.548L183.888 662.856C185.174 663.901 187.063 663.706 188.108 662.42ZM165.746 622.268C167.247 621.568 169.032 622.217 169.733 623.719C170.433 625.22 169.784 627.005 168.282 627.706L159.22 631.933C157.718 632.634 155.933 631.984 155.233 630.483C154.532 628.981 155.182 627.196 156.683 626.496L165.746 622.268ZM113.907 696.114C114.453 697.678 116.165 698.502 117.729 697.955L127.168 694.654C128.732 694.107 129.557 692.396 129.01 690.832C128.463 689.268 126.751 688.443 125.187 688.99L115.748 692.292C114.184 692.839 113.36 694.55 113.907 696.114Z" fill="url(#paint6_radial_2022_28193)" fill-opacity="0.2" style="mix-blend-mode:multiply"/>
<path d="M85.8727 534.173C105.396 519.553 129.641 510.894 155.909 510.894C217.444 510.894 267.88 558.417 272.518 618.763L85.8727 534.173Z" fill="#D5220F"/>
<path d="M85.8727 534.173C105.396 519.553 129.641 510.894 155.909 510.894C217.444 510.894 267.88 558.417 272.518 618.763L85.8727 534.173Z" fill="url(#paint7_linear_2022_28193)" style="mix-blend-mode:luminosity"/>
<path d="M85.8727 534.173C105.396 519.553 129.641 510.894 155.909 510.894C217.444 510.894 267.88 558.417 272.518 618.763L85.8727 534.173Z" fill="url(#paint8_linear_2022_28193)" fill-opacity="0.2" style="mix-blend-mode:luminosity"/>
<rect width="17.8818" height="37.2432" transform="matrix(-0.839799 -0.542898 -0.542898 0.839799 221.553 517.881)" fill="#D9D9D9"/>
<rect width="17.8818" height="37.2432" transform="matrix(-0.839799 -0.542898 -0.542898 0.839799 221.553 517.881)" fill="url(#paint9_linear_2022_28193)"/>
<rect width="24.9825" height="148.759" rx="4" transform="matrix(-0.839799 -0.542898 -0.542898 0.839799 205.879 548.665)" fill="url(#paint10_linear_2022_28193)"/>
<path d="M351.771 346.803C351.894 346.404 352.254 346.113 352.671 346.131C353.316 346.16 353.774 346.305 354.267 346.591C354.633 346.803 354.778 347.25 354.661 347.657L347.543 372.352C347.514 372.45 347.473 372.545 347.409 372.624C346.976 373.157 346.136 373.549 345.652 373.525C345.55 373.52 345.448 373.5 345.345 373.5H338.313C337.653 373.5 337.174 372.871 337.349 372.234L340.773 359.821C340.904 359.348 341.359 359.041 341.848 359.088C344.122 359.308 345.536 359.298 347.367 359.081C347.753 359.035 348.074 358.762 348.189 358.39L351.771 346.803Z" fill="#1E1E1E"/>
<rect width="20.2941" height="113.343" transform="matrix(-0.995734 0.0922683 0.0922683 0.995734 912.039 518.599)" fill="#212121"/>
<rect width="32.9599" height="5.46015" rx="2.73008" transform="matrix(-0.996587 0.0825537 0.0862736 0.996271 919.849 534)" fill="#373737"/>
<rect width="32.9599" height="5.46015" rx="2.73008" transform="matrix(-0.996587 0.0825537 0.0862736 0.996271 919.849 534)" fill="url(#paint11_linear_2022_28193)" fill-opacity="0.2"/>
<rect width="32.9596" height="5.46021" rx="2.73011" transform="matrix(-0.996359 0.0852567 0.0890965 0.996023 920.597 547.161)" fill="#373737"/>
<rect width="32.9596" height="5.46021" rx="2.73011" transform="matrix(-0.996359 0.0852567 0.0890965 0.996023 920.597 547.161)" fill="url(#paint12_linear_2022_28193)" fill-opacity="0.2"/>
<rect width="32.9596" height="5.46021" rx="2.73011" transform="matrix(-0.996359 0.0852567 0.0890965 0.996023 921.509 560.409)" fill="#373737"/>
<rect width="32.9596" height="5.46021" rx="2.73011" transform="matrix(-0.996359 0.0852567 0.0890965 0.996023 921.509 560.409)" fill="url(#paint13_linear_2022_28193)" fill-opacity="0.2"/>
<path d="M933.39 651.062C932.872 640.483 923.875 632.328 913.296 632.846L710.099 642.809C705.686 643.026 702.284 646.778 702.501 651.191L703.431 670.169C703.647 674.582 707.4 677.984 711.813 677.767L918.362 667.64C927.09 667.212 933.818 659.79 933.39 651.062V651.062Z" fill="#212121"/>
<path d="M933.39 651.062C932.872 640.483 923.875 632.328 913.296 632.846L710.099 642.809C705.686 643.026 702.284 646.778 702.501 651.191L703.431 670.169C703.647 674.582 707.4 677.984 711.813 677.767L918.362 667.64C927.09 667.212 933.818 659.79 933.39 651.062V651.062Z" fill="url(#paint14_linear_2022_28193)"/>
<path d="M942.339 648.944C941.688 635.667 930.397 625.432 917.12 626.082L798.077 631.919C793.664 632.136 790.262 635.888 790.478 640.301L792.052 672.4C792.268 676.813 796.021 680.215 800.434 679.999L919.478 674.162C932.755 673.511 942.99 662.22 942.339 648.944V648.944Z" fill="#212121"/>
<path d="M942.339 648.944C941.688 635.667 930.397 625.432 917.12 626.082L798.077 631.919C793.664 632.136 790.262 635.888 790.478 640.301L792.052 672.4C792.268 676.813 796.021 680.215 800.434 679.999L919.478 674.162C932.755 673.511 942.99 662.22 942.339 648.944V648.944Z" fill="url(#paint15_linear_2022_28193)"/>
<g filter="url(#filter2_i_2022_28193)">
<path d="M891.648 343.227C777.055 341.429 717.206 341.788 615 354.804C569.016 358.171 525 405.696 525 451.804L535.5 591.304C535.5 602.349 531.546 608.141 520.5 608.141H387.5C364.608 608.141 352.16 597.205 345.5 575.304L319.636 488.196C314.941 472.754 314.739 456.294 319.054 440.742L377.248 230.992C382.372 212.524 362.11 197.407 345.867 207.579L319.054 224.371L282.792 275.535C276.304 284.69 268.059 292.453 258.297 297.986C234.754 311.331 207.371 326.772 207.371 350.767L219.416 443.67C219.416 448.856 215.482 456.471 213.808 463.011C212.567 467.862 213.57 472.953 213.986 477.943L221.12 563.507C221.865 572.43 223.211 581.339 226.266 589.756C242.014 633.137 276.777 667.287 321.015 682.052L347.209 690.795C356 692.804 364.5 695.167 374.12 695.167H632.648C691.453 695.167 741.5 671.304 788.5 633.304C853.838 577.299 893.528 542.715 947.183 493.544C967.295 475.113 988.071 453.509 987.965 426.229C987.792 381.556 946.751 344.092 891.648 343.227Z" fill="url(#paint16_radial_2022_28193)"/>
</g>
<path d="M193.239 452.463C194.001 476.242 221.467 595.552 238.849 620.304C260.125 620.304 274.308 618.774 287.936 616.966C274.447 588.182 259.429 540.903 255.119 497.239C248.364 428.824 273.335 349.84 284.737 314.52C293.087 288.655 311.992 234.841 324.229 222.604C312.549 218.293 282.513 261.539 263.184 280.451C249.973 292.409 210.76 303.812 196.854 312.155C190.597 321.472 194.768 399.622 197.827 426.32C196.854 434.107 192.74 436.889 193.239 452.463Z" fill="#D5220F"/>
<path d="M193.239 452.463C194.001 476.242 221.467 595.552 238.849 620.304C260.125 620.304 274.308 618.774 287.936 616.966C274.447 588.182 259.429 540.903 255.119 497.239C248.364 428.824 273.335 349.84 284.737 314.52C293.087 288.655 311.992 234.841 324.229 222.604C312.549 218.293 282.513 261.539 263.184 280.451C249.973 292.409 210.76 303.812 196.854 312.155C190.597 321.472 194.768 399.622 197.827 426.32C196.854 434.107 192.74 436.889 193.239 452.463Z" fill="url(#paint17_linear_2022_28193)" fill-opacity="0.3" style="mix-blend-mode:luminosity"/>
<path d="M193.239 452.463C194.001 476.242 221.467 595.552 238.849 620.304C260.125 620.304 274.308 618.774 287.936 616.966C274.447 588.182 259.429 540.903 255.119 497.239C248.364 428.824 273.335 349.84 284.737 314.52C293.087 288.655 311.992 234.841 324.229 222.604C312.549 218.293 282.513 261.539 263.184 280.451C249.973 292.409 210.76 303.812 196.854 312.155C190.597 321.472 194.768 399.622 197.827 426.32C196.854 434.107 192.74 436.889 193.239 452.463Z" fill="url(#paint18_linear_2022_28193)" fill-opacity="0.2" style="mix-blend-mode:luminosity"/>
<g filter="url(#filter3_i_2022_28193)">
<rect width="20.0241" height="10.8464" rx="5.42318" transform="matrix(-0.999603 -0.0281672 -0.0281672 0.999603 231.892 421.016)" fill="#6F6F6F" fill-opacity="0.8"/>
<rect width="20.0241" height="10.8464" rx="5.42318" transform="matrix(-0.999603 -0.0281672 -0.0281672 0.999603 231.892 421.016)" fill="#CEC089" fill-opacity="0.3"/>
</g>
<path fill-rule="evenodd" clip-rule="evenodd" d="M197.146 410.448C189.587 404.538 183.96 386.487 183.753 365.082C183.552 344.395 188.473 326.742 195.522 320.114C193.109 338.887 194.962 382.665 197.146 410.448Z" fill="#555555"/>
<path fill-rule="evenodd" clip-rule="evenodd" d="M197.146 410.448C189.587 404.538 183.96 386.487 183.753 365.082C183.552 344.395 188.473 326.742 195.522 320.114C193.109 338.887 194.962 382.665 197.146 410.448Z" fill="url(#paint19_radial_2022_28193)" fill-opacity="0.2"/>
<path fill-rule="evenodd" clip-rule="evenodd" d="M910.401 529.443C923.399 517.514 936.635 505.088 950.783 491.46C968.437 474.454 986.212 454.981 988.001 430.534C990.432 397.319 970.625 367.628 937.118 352.928C922.074 367.526 892.996 374.958 855.215 384.615C842.528 387.858 828.86 391.352 814.412 395.452C803.023 398.684 788.727 402.993 772.545 407.87C696.645 430.745 579.263 466.123 525.808 461.541L535.264 587.304C535.264 588.649 535.183 589.975 535.021 591.268C567.535 599.915 635.821 589.814 716.725 574.105C770.348 563.693 851.013 544.298 910.401 529.443Z" fill="#D5220F"/>
<path fill-rule="evenodd" clip-rule="evenodd" d="M910.401 529.443C923.399 517.514 936.635 505.088 950.783 491.46C968.437 474.454 986.212 454.981 988.001 430.534C990.432 397.319 970.625 367.628 937.118 352.928C922.074 367.526 892.996 374.958 855.215 384.615C842.528 387.858 828.86 391.352 814.412 395.452C803.023 398.684 788.727 402.993 772.545 407.87C696.645 430.745 579.263 466.123 525.808 461.541L535.264 587.304C535.264 588.649 535.183 589.975 535.021 591.268C567.535 599.915 635.821 589.814 716.725 574.105C770.348 563.693 851.013 544.298 910.401 529.443Z" fill="url(#paint20_radial_2022_28193)" fill-opacity="0.5" style="mix-blend-mode:luminosity"/>
<path d="M975.475 349.352C974.853 349.128 974.153 349.144 973.542 349.398C919.42 371.837 882.868 382.061 815.379 398.38C809.462 399.81 805.895 405.882 807.567 411.735V411.735C809.188 417.407 815.095 420.697 820.771 419.088L1000.3 368.19C1002.35 367.61 1003.21 365.166 1001.84 363.534C995.157 355.539 989.412 354.376 975.475 349.352Z" fill="#111111"/>
<g filter="url(#filter4_f_2022_28193)">
<path d="M988 422.891C987.559 412.161 984.916 401.801 980.407 392.304L938.22 403.167C929.792 405.337 924.719 413.928 926.89 422.356C929.06 430.784 937.651 435.856 946.079 433.686L988 422.891Z" fill="#D5A455" fill-opacity="0.3"/>
<path d="M988 422.891C987.559 412.161 984.916 401.801 980.407 392.304L938.22 403.167C929.792 405.337 924.719 413.928 926.89 422.356C929.06 430.784 937.651 435.856 946.079 433.686L988 422.891Z" stroke="black" stroke-opacity="0.1" stroke-linecap="round" stroke-linejoin="round"/>
</g>
<g filter="url(#filter5_f_2022_28193)">
<path d="M987.527 416.94C986.747 410.33 985.129 403.9 982.759 397.771L939.788 408.836C934.506 410.197 931.327 415.581 932.687 420.863C934.047 426.146 939.432 429.325 944.714 427.965L987.527 416.94Z" fill="#640600" fill-opacity="0.8"/>
</g>
<g filter="url(#filter6_f_2022_28193)">
<path d="M959.306 408.215C958.781 406.069 956.617 404.755 954.471 405.279L940.311 408.738C934.901 410.059 931.587 415.516 932.909 420.926V420.926C934.23 426.335 939.687 429.649 945.096 428.328L959.256 424.869C961.402 424.344 962.717 422.18 962.193 420.034L959.306 408.215Z" fill="#FFBF65" fill-opacity="0.15"/>
</g>
<g filter="url(#filter7_d_2022_28193)">
<rect width="15.8902" height="57.5609" rx="7.94509" transform="matrix(-0.839809 -0.542881 -0.542881 0.839809 173.809 547.962)" fill="#704512"/>
<rect width="15.8902" height="57.5609" rx="7.94509" transform="matrix(-0.839809 -0.542881 -0.542881 0.839809 173.809 547.962)" fill="url(#paint21_linear_2022_28193)" fill-opacity="0.2"/>
</g>
<path d="M391.929 72.1455L375.685 130.218C373.707 137.286 373.001 144.649 373.598 151.964L376.542 188.026" stroke="#151515" stroke-width="8" stroke-linecap="round" stroke-linejoin="round"/>
<path d="M391.929 72.1455L375.685 130.218C373.707 137.286 373.001 144.649 373.598 151.964L376.542 188.026" stroke="url(#paint22_linear_2022_28193)" stroke-opacity="0.2" stroke-width="8" stroke-linecap="round" stroke-linejoin="round"/>
<ellipse cx="16.0396" cy="37.788" rx="16.0396" ry="37.788" transform="matrix(-1 0 0 1 418.767 17.0332)" fill="#151515"/>
<ellipse cx="16.0396" cy="37.788" rx="16.0396" ry="37.788" transform="matrix(-1 0 0 1 418.767 17.0332)" fill="url(#paint23_radial_2022_28193)" fill-opacity="0.15"/>
<rect width="18.8804" height="87.3091" rx="5" transform="matrix(-0.866025 0.5 0.5 0.866025 350.108 148.7)" fill="#292929"/>
<path d="M417.745 151.946C425.97 148.716 435.256 152.766 438.485 160.992C441.714 169.217 437.664 178.503 429.439 181.732L417.745 151.946ZM381.053 183.54L366.405 177.102C368.106 173.231 371.27 170.191 375.206 168.646L381.053 183.54ZM429.439 181.732L386.9 198.433L375.206 168.646L417.745 151.946L429.439 181.732ZM395.701 189.977L370.322 247.723L341.026 234.848L366.405 177.102L395.701 189.977Z" fill="#151515"/>
<path d="M417.745 151.946C425.97 148.716 435.256 152.766 438.485 160.992C441.714 169.217 437.664 178.503 429.439 181.732L417.745 151.946ZM381.053 183.54L366.405 177.102C368.106 173.231 371.27 170.191 375.206 168.646L381.053 183.54ZM429.439 181.732L386.9 198.433L375.206 168.646L417.745 151.946L429.439 181.732ZM395.701 189.977L370.322 247.723L341.026 234.848L366.405 177.102L395.701 189.977Z" fill="url(#paint24_linear_2022_28193)" fill-opacity="0.1"/>
<defs>
<filter id="filter0_f_2022_28193" x="24.182" y="763.98" width="1022.49" height="39.4245" filterUnits="userSpaceOnUse" color-interpolation-filters="sRGB">
<feFlood flood-opacity="0" result="BackgroundImageFix"/>
<feBlend mode="normal" in="SourceGraphic" in2="BackgroundImageFix" result="shape"/>
<feGaussianBlur stdDeviation="8.2" result="effect1_foregroundBlur_2022_28193"/>
</filter>
<filter id="filter1_i_2022_28193" x="801.027" y="535.59" width="250.118" height="250.119" filterUnits="userSpaceOnUse" color-interpolation-filters="sRGB">
<feFlood flood-opacity="0" result="BackgroundImageFix"/>
<feBlend mode="normal" in="SourceGraphic" in2="BackgroundImageFix" result="shape"/>
<feColorMatrix in="SourceAlpha" type="matrix" values="0 0 0 0 0 0 0 0 0 0 0 0 0 0 0 0 0 0 127 0" result="hardAlpha"/>
<feMorphology radius="10" operator="erode" in="SourceAlpha" result="effect1_innerShadow_2022_28193"/>
<feOffset/>
<feGaussianBlur stdDeviation="4.9"/>
<feComposite in2="hardAlpha" operator="arithmetic" k2="-1" k3="1"/>
<feColorMatrix type="matrix" values="0 0 0 0 0 0 0 0 0 0 0 0 0 0 0 0 0 0 0.5 0"/>
<feBlend mode="normal" in2="shape" result="effect1_innerShadow_2022_28193"/>
</filter>
<filter id="filter2_i_2022_28193" x="207.371" y="204.304" width="780.595" height="490.863" filterUnits="userSpaceOnUse" color-interpolation-filters="sRGB">
<feFlood flood-opacity="0" result="BackgroundImageFix"/>
<feBlend mode="normal" in="SourceGraphic" in2="BackgroundImageFix" result="shape"/>
<feColorMatrix in="SourceAlpha" type="matrix" values="0 0 0 0 0 0 0 0 0 0 0 0 0 0 0 0 0 0 127 0" result="hardAlpha"/>
<feOffset/>
<feGaussianBlur stdDeviation="5"/>
<feComposite in2="hardAlpha" operator="arithmetic" k2="-1" k3="1"/>
<feColorMatrix type="matrix" values="0 0 0 0 0 0 0 0 0 0 0 0 0 0 0 0 0 0 0.5 0"/>
<feBlend mode="normal" in2="shape" result="effect1_innerShadow_2022_28193"/>
</filter>
<filter id="filter3_i_2022_28193" x="211.721" y="420.602" width="20.0205" height="13.105" filterUnits="userSpaceOnUse" color-interpolation-filters="sRGB">
<feFlood flood-opacity="0" result="BackgroundImageFix"/>
<feBlend mode="normal" in="SourceGraphic" in2="BackgroundImageFix" result="shape"/>
<feColorMatrix in="SourceAlpha" type="matrix" values="0 0 0 0 0 0 0 0 0 0 0 0 0 0 0 0 0 0 127 0" result="hardAlpha"/>
<feOffset dy="2"/>
<feGaussianBlur stdDeviation="1"/>
<feComposite in2="hardAlpha" operator="arithmetic" k2="-1" k3="1"/>
<feColorMatrix type="matrix" values="0 0 0 0 0 0 0 0 0 0 0 0 0 0 0 0 0 0 0.1 0"/>
<feBlend mode="normal" in2="shape" result="effect1_innerShadow_2022_28193"/>
</filter>
<filter id="filter4_f_2022_28193" x="924.888" y="390.804" width="64.6123" height="44.8843" filterUnits="userSpaceOnUse" color-interpolation-filters="sRGB">
<feFlood flood-opacity="0" result="BackgroundImageFix"/>
<feBlend mode="normal" in="SourceGraphic" in2="BackgroundImageFix" result="shape"/>
<feGaussianBlur stdDeviation="0.5" result="effect1_foregroundBlur_2022_28193"/>
</filter>
<filter id="filter5_f_2022_28193" x="931.372" y="396.771" width="57.1553" height="32.5078" filterUnits="userSpaceOnUse" color-interpolation-filters="sRGB">
<feFlood flood-opacity="0" result="BackgroundImageFix"/>
<feBlend mode="normal" in="SourceGraphic" in2="BackgroundImageFix" result="shape"/>
<feGaussianBlur stdDeviation="0.5" result="effect1_foregroundBlur_2022_28193"/>
</filter>
<filter id="filter6_f_2022_28193" x="931.118" y="403.664" width="32.6895" height="26.4546" filterUnits="userSpaceOnUse" color-interpolation-filters="sRGB">
<feFlood flood-opacity="0" result="BackgroundImageFix"/>
<feBlend mode="normal" in="SourceGraphic" in2="BackgroundImageFix" result="shape"/>
<feGaussianBlur stdDeviation="0.75" result="effect1_foregroundBlur_2022_28193"/>
</filter>
<filter id="filter7_d_2022_28193" x="128.455" y="531.575" width="50.1137" height="62.4877" filterUnits="userSpaceOnUse" color-interpolation-filters="sRGB">
<feFlood flood-opacity="0" result="BackgroundImageFix"/>
<feColorMatrix in="SourceAlpha" type="matrix" values="0 0 0 0 0 0 0 0 0 0 0 0 0 0 0 0 0 0 127 0" result="hardAlpha"/>
<feMorphology radius="1" operator="dilate" in="SourceAlpha" result="effect1_dropShadow_2022_28193"/>
<feOffset dx="2" dy="-5"/>
<feGaussianBlur stdDeviation="2.4"/>
<feComposite in2="hardAlpha" operator="out"/>
<feColorMatrix type="matrix" values="0 0 0 0 0 0 0 0 0 0 0 0 0 0 0 0 0 0 0.25 0"/>
<feBlend mode="normal" in2="BackgroundImageFix" result="effect1_dropShadow_2022_28193"/>
<feBlend mode="normal" in="SourceGraphic" in2="effect1_dropShadow_2022_28193" result="shape"/>
</filter>
<linearGradient id="paint0_linear_2022_28193" x1="150.817" y1="91.7575" x2="189.732" y2="41.8185" gradientUnits="userSpaceOnUse">
<stop stop-opacity="0"/>
<stop offset="1"/>
</linearGradient>
<radialGradient id="paint1_radial_2022_28193" cx="0" cy="0" r="1" gradientUnits="userSpaceOnUse" gradientTransform="translate(926 661) rotate(89.8361) scale(124.709)">
<stop offset="0.656387" stop-color="#323232"/>
<stop offset="0.763587" stop-color="#222222"/>
<stop offset="0.823945" stop-color="#232323"/>
<stop offset="0.86551" stop-color="#383737"/>
<stop offset="1" stop-color="#181818"/>
</radialGradient>
<radialGradient id="paint2_radial_2022_28193" cx="0" cy="0" r="1" gradientUnits="userSpaceOnUse" gradientTransform="translate(94.4928 28.8399) rotate(107.524) scale(102.934)">
<stop stop-color="white"/>
<stop offset="1" stop-color="white" stop-opacity="0"/>
</radialGradient>
<radialGradient id="paint3_radial_2022_28193" cx="0" cy="0" r="1" gradientUnits="userSpaceOnUse" gradientTransform="translate(141 661) rotate(89.8361) scale(124.709)">
<stop offset="0.656387" stop-color="#323232"/>
<stop offset="0.763587" stop-color="#222222"/>
<stop offset="0.823945" stop-color="#232323"/>
<stop offset="0.86551" stop-color="#292929"/>
<stop offset="1" stop-color="#181818"/>
</radialGradient>
<radialGradient id="paint4_radial_2022_28193" cx="0" cy="0" r="1" gradientUnits="userSpaceOnUse" gradientTransform="translate(137 665.5) rotate(103.943) scale(74.7011)">
<stop offset="0.268732" stop-color="#111111"/>
<stop offset="0.79634" stop-color="#1C1C1C"/>
<stop offset="0.849303" stop-color="#484848"/>
<stop offset="0.913211" stop-color="#242424"/>
</radialGradient>
<linearGradient id="paint5_linear_2022_28193" x1="151" y1="615" x2="108.5" y2="733" gradientUnits="userSpaceOnUse">
<stop stop-color="#E1E1E1"/>
<stop offset="1" stop-color="#606060"/>
</linearGradient>
<radialGradient id="paint6_radial_2022_28193" cx="0" cy="0" r="1" gradientUnits="userSpaceOnUse" gradientTransform="translate(123 644.5) rotate(91.3972) scale(82.0244)">
<stop stop-color="white"/>
<stop offset="1" stop-color="#373737"/>
</radialGradient>
<linearGradient id="paint7_linear_2022_28193" x1="179.195" y1="570.662" x2="326.5" y2="474" gradientUnits="userSpaceOnUse">
<stop stop-opacity="0"/>
<stop offset="1"/>
</linearGradient>
<linearGradient id="paint8_linear_2022_28193" x1="272.518" y1="549.278" x2="92.2526" y2="580.523" gradientUnits="userSpaceOnUse">
<stop/>
<stop offset="1" stop-color="white" stop-opacity="0.5"/>
</linearGradient>
<linearGradient id="paint9_linear_2022_28193" x1="17.8989" y1="8.82578" x2="-0.273802" y2="9.7303" gradientUnits="userSpaceOnUse">
<stop stop-color="#505050"/>
<stop offset="0.494999" stop-color="#E7E7E7"/>
<stop offset="1" stop-color="#505050"/>
</linearGradient>
<linearGradient id="paint10_linear_2022_28193" x1="25.0064" y1="35.2524" x2="-0.437712" y2="35.6953" gradientUnits="userSpaceOnUse">
<stop stop-color="#151515"/>
<stop offset="0.494999" stop-color="#2E2E2E"/>
<stop offset="1" stop-color="#151515"/>
</linearGradient>
<linearGradient id="paint11_linear_2022_28193" x1="16.48" y1="0" x2="16.48" y2="5.46015" gradientUnits="userSpaceOnUse">
<stop stop-opacity="0"/>
<stop offset="1"/>
</linearGradient>
<linearGradient id="paint12_linear_2022_28193" x1="16.4798" y1="0" x2="16.4798" y2="5.46021" gradientUnits="userSpaceOnUse">
<stop stop-opacity="0"/>
<stop offset="1"/>
</linearGradient>
<linearGradient id="paint13_linear_2022_28193" x1="16.4798" y1="0" x2="16.4798" y2="5.46021" gradientUnits="userSpaceOnUse">
<stop stop-opacity="0"/>
<stop offset="1"/>
</linearGradient>
<linearGradient id="paint14_linear_2022_28193" x1="869.777" y1="575.249" x2="838.226" y2="701.774" gradientUnits="userSpaceOnUse">
<stop/>
<stop offset="0.553672" stop-opacity="0"/>
<stop offset="1"/>
</linearGradient>
<linearGradient id="paint15_linear_2022_28193" x1="897.952" y1="544.871" x2="819.907" y2="682.555" gradientUnits="userSpaceOnUse">
<stop/>
<stop offset="0.553672" stop-opacity="0"/>
<stop offset="1"/>
</linearGradient>
<radialGradient id="paint16_radial_2022_28193" cx="0" cy="0" r="1" gradientUnits="userSpaceOnUse" gradientTransform="translate(597.234 403.998) rotate(87.6625) scale(300.753 783.555)">
<stop stop-color="#0F0F0F"/>
<stop offset="0.827117" stop-color="#0F0F0F"/>
<stop offset="0.891082" stop-color="#202020"/>
<stop offset="0.913331" stop-color="#202020"/>
<stop offset="1" stop-color="#3C3C3C"/>
</radialGradient>
<linearGradient id="paint17_linear_2022_28193" x1="219.004" y1="580.315" x2="367.424" y2="432.573" gradientUnits="userSpaceOnUse">
<stop/>
<stop offset="1" stop-color="white" stop-opacity="0.5"/>
</linearGradient>
<linearGradient id="paint18_linear_2022_28193" x1="238.563" y1="352.213" x2="223.228" y2="345.979" gradientUnits="userSpaceOnUse">
<stop stop-opacity="0"/>
<stop offset="1"/>
</linearGradient>
<radialGradient id="paint19_radial_2022_28193" cx="0" cy="0" r="1" gradientUnits="userSpaceOnUse" gradientTransform="translate(191.966 365.304) rotate(-180) scale(8.5 30.1455)">
<stop stop-color="white"/>
<stop offset="1" stop-color="white" stop-opacity="0"/>
</radialGradient>
<radialGradient id="paint20_radial_2022_28193" cx="0" cy="0" r="1" gradientUnits="userSpaceOnUse" gradientTransform="translate(730.271 474.07) rotate(-10.69) scale(262.487 207.365)">
<stop offset="0.615072" stop-color="#363636" stop-opacity="0"/>
<stop offset="1"/>
</radialGradient>
<linearGradient id="paint21_linear_2022_28193" x1="7.94509" y1="0" x2="7.94509" y2="57.5609" gradientUnits="userSpaceOnUse">
<stop stop-color="white"/>
<stop offset="1"/>
</linearGradient>
<linearGradient id="paint22_linear_2022_28193" x1="399.834" y1="104.037" x2="378.356" y2="98.1438" gradientUnits="userSpaceOnUse">
<stop stop-color="white"/>
<stop offset="1" stop-color="white" stop-opacity="0"/>
</linearGradient>
<radialGradient id="paint23_radial_2022_28193" cx="0" cy="0" r="1" gradientUnits="userSpaceOnUse" gradientTransform="translate(25.5547 30.9916) rotate(102.047) scale(45.5884 19.3505)">
<stop stop-color="white"/>
<stop offset="1" stop-color="white" stop-opacity="0"/>
</radialGradient>
<linearGradient id="paint24_linear_2022_28193" x1="371.037" y1="205.078" x2="439.534" y2="174.634" gradientUnits="userSpaceOnUse">
<stop stop-color="white" stop-opacity="0"/>
<stop offset="1" stop-color="white"/>
</linearGradient>
</defs>
</svg>
