<svg width="1055" height="869" viewBox="0 0 1055 869" fill="none" xmlns="http://www.w3.org/2000/svg">
<g filter="url(#filter0_f_2011_6105)">
<ellipse cx="518" cy="782" rx="496" ry="7" fill="black" fill-opacity="0.3"/>
</g>
<rect x="237.513" y="637.604" width="116" height="35" transform="rotate(4.39782 237.513 637.604)" fill="#111111"/>
<rect x="237.513" y="637.604" width="116" height="35" transform="rotate(4.39782 237.513 637.604)" fill="url(#paint0_linear_2011_6105)"/>
<g filter="url(#filter1_i_2011_6105)">
<circle cx="128.914" cy="660.649" r="125.059" fill="#111111"/>
<circle cx="128.914" cy="660.649" r="125.059" fill="url(#paint1_linear_2011_6105)"/>
</g>
<path fill-rule="evenodd" clip-rule="evenodd" d="M128.643 785.708C197.712 785.708 253.703 729.718 253.703 660.649C253.703 591.581 197.712 535.59 128.643 535.59C59.575 535.59 3.58398 591.581 3.58398 660.649C3.58398 729.718 59.575 785.708 128.643 785.708ZM128.643 728.321C166.017 728.321 196.315 698.023 196.315 660.649C196.315 623.275 166.017 592.977 128.643 592.977C91.2692 592.977 60.9716 623.275 60.9716 660.649C60.9716 698.023 91.2692 728.321 128.643 728.321Z" fill="url(#paint2_radial_2011_6105)"/>
<circle cx="128.913" cy="660.649" r="63.4982" fill="#111111"/>
<circle cx="128.913" cy="660.649" r="63.4982" fill="url(#paint3_radial_2011_6105)" fill-opacity="0.1"/>
<circle cx="128.913" cy="660.649" r="75.4982" stroke="black" stroke-opacity="0.5" stroke-width="24"/>
<path fill-rule="evenodd" clip-rule="evenodd" d="M913.5 711C941.39 711 964 688.39 964 660.5C964 632.61 941.39 610 913.5 610C885.61 610 863 632.61 863 660.5C863 688.39 885.61 711 913.5 711ZM913.5 689.81C897.312 689.81 884.19 676.688 884.19 660.5C884.19 644.312 897.312 631.19 913.5 631.19C929.688 631.19 942.81 644.312 942.81 660.5C942.81 676.688 929.688 689.81 913.5 689.81ZM930.339 627.917C930.151 629.563 931.334 631.049 932.98 631.237C934.627 631.424 936.113 630.241 936.3 628.595L937.431 618.659C937.618 617.013 936.435 615.526 934.789 615.339C933.143 615.152 931.657 616.335 931.469 617.981L930.339 627.917ZM940.696 644.593C939.838 643.176 940.292 641.331 941.71 640.474L950.267 635.299C951.685 634.441 953.529 634.896 954.387 636.313C955.244 637.731 954.79 639.576 953.372 640.433L944.815 645.608C943.397 646.465 941.553 646.011 940.696 644.593ZM947.682 654.563C946.058 654.891 945.008 656.474 945.336 658.098C945.664 659.722 947.246 660.773 948.87 660.445L958.672 658.465C960.296 658.137 961.347 656.554 961.019 654.93C960.691 653.306 959.109 652.256 957.484 652.584L947.682 654.563ZM943.815 676.332C942.161 676.439 940.908 677.867 941.016 679.52C941.124 681.174 942.552 682.427 944.205 682.319L954.184 681.668C955.837 681.56 957.09 680.133 956.982 678.479C956.874 676.826 955.447 675.573 953.793 675.681L943.815 676.332ZM917.57 704.297C916.416 705.486 914.516 705.514 913.327 704.36L906.152 697.395C904.963 696.241 904.935 694.342 906.089 693.153C907.243 691.964 909.142 691.935 910.331 693.089L917.506 700.054C918.695 701.208 918.724 703.108 917.57 704.297ZM888.049 696.442C888.183 698.093 889.63 699.324 891.282 699.19C892.933 699.056 894.164 697.609 894.03 695.957L893.222 685.99C893.088 684.339 891.641 683.108 889.99 683.242C888.338 683.376 887.108 684.823 887.242 686.475L888.049 696.442ZM873.855 685.15C872.278 684.642 871.411 682.952 871.919 681.375L874.983 671.856C875.491 670.279 877.181 669.412 878.758 669.919C880.335 670.427 881.202 672.117 880.694 673.694L877.63 683.213C877.123 684.79 875.432 685.657 873.855 685.15ZM873.876 637.697C872.287 638.168 871.382 639.837 871.853 641.426C872.324 643.014 873.993 643.92 875.582 643.449L885.169 640.605C886.758 640.134 887.663 638.465 887.192 636.876C886.721 635.288 885.051 634.382 883.463 634.853L873.876 637.697ZM866.892 662.42C865.847 661.134 866.042 659.245 867.328 658.2L875.087 651.892C876.373 650.847 878.262 651.042 879.308 652.328C880.353 653.614 880.158 655.503 878.872 656.548L871.112 662.856C869.826 663.901 867.937 663.706 866.892 662.42ZM889.254 622.268C887.753 621.568 885.968 622.217 885.267 623.719C884.567 625.22 885.216 627.005 886.718 627.706L895.78 631.933C897.282 632.634 899.067 631.984 899.767 630.483C900.468 628.981 899.818 627.196 898.317 626.496L889.254 622.268ZM941.093 696.114C940.547 697.678 938.835 698.502 937.271 697.955L927.832 694.654C926.268 694.107 925.443 692.396 925.99 690.832C926.537 689.268 928.249 688.443 929.813 688.99L939.252 692.292C940.816 692.839 941.64 694.55 941.093 696.114Z" fill="url(#paint4_linear_2011_6105)"/>
<path fill-rule="evenodd" clip-rule="evenodd" d="M913.5 711C941.39 711 964 688.39 964 660.5C964 632.61 941.39 610 913.5 610C885.61 610 863 632.61 863 660.5C863 688.39 885.61 711 913.5 711ZM913.5 689.81C897.312 689.81 884.19 676.688 884.19 660.5C884.19 644.312 897.312 631.19 913.5 631.19C929.688 631.19 942.81 644.312 942.81 660.5C942.81 676.688 929.688 689.81 913.5 689.81ZM930.339 627.917C930.151 629.563 931.334 631.049 932.98 631.237C934.627 631.424 936.113 630.241 936.3 628.595L937.431 618.659C937.618 617.013 936.435 615.526 934.789 615.339C933.143 615.152 931.657 616.335 931.469 617.981L930.339 627.917ZM940.696 644.593C939.838 643.176 940.292 641.331 941.71 640.474L950.267 635.299C951.685 634.441 953.529 634.896 954.387 636.313C955.244 637.731 954.79 639.576 953.372 640.433L944.815 645.608C943.397 646.465 941.553 646.011 940.696 644.593ZM947.682 654.563C946.058 654.891 945.008 656.474 945.336 658.098C945.664 659.722 947.246 660.773 948.87 660.445L958.672 658.465C960.296 658.137 961.347 656.554 961.019 654.93C960.691 653.306 959.109 652.256 957.484 652.584L947.682 654.563ZM943.815 676.332C942.161 676.439 940.908 677.867 941.016 679.52C941.124 681.174 942.552 682.427 944.205 682.319L954.184 681.668C955.837 681.56 957.09 680.133 956.982 678.479C956.874 676.826 955.447 675.573 953.793 675.681L943.815 676.332ZM917.57 704.297C916.416 705.486 914.516 705.514 913.327 704.36L906.152 697.395C904.963 696.241 904.935 694.342 906.089 693.153C907.243 691.964 909.142 691.935 910.331 693.089L917.506 700.054C918.695 701.208 918.724 703.108 917.57 704.297ZM888.049 696.442C888.183 698.093 889.63 699.324 891.282 699.19C892.933 699.056 894.164 697.609 894.03 695.957L893.222 685.99C893.088 684.339 891.641 683.108 889.99 683.242C888.338 683.376 887.108 684.823 887.242 686.475L888.049 696.442ZM873.855 685.15C872.278 684.642 871.411 682.952 871.919 681.375L874.983 671.856C875.491 670.279 877.181 669.412 878.758 669.919C880.335 670.427 881.202 672.117 880.694 673.694L877.63 683.213C877.123 684.79 875.432 685.657 873.855 685.15ZM873.876 637.697C872.287 638.168 871.382 639.837 871.853 641.426C872.324 643.014 873.993 643.92 875.582 643.449L885.169 640.605C886.758 640.134 887.663 638.465 887.192 636.876C886.721 635.288 885.051 634.382 883.463 634.853L873.876 637.697ZM866.892 662.42C865.847 661.134 866.042 659.245 867.328 658.2L875.087 651.892C876.373 650.847 878.262 651.042 879.308 652.328C880.353 653.614 880.158 655.503 878.872 656.548L871.112 662.856C869.826 663.901 867.937 663.706 866.892 662.42ZM889.254 622.268C887.753 621.568 885.968 622.217 885.267 623.719C884.567 625.22 885.216 627.005 886.718 627.706L895.78 631.933C897.282 632.634 899.067 631.984 899.767 630.483C900.468 628.981 899.818 627.196 898.317 626.496L889.254 622.268ZM941.093 696.114C940.547 697.678 938.835 698.502 937.271 697.955L927.832 694.654C926.268 694.107 925.443 692.396 925.99 690.832C926.537 689.268 928.249 688.443 929.813 688.99L939.252 692.292C940.816 692.839 941.64 694.55 941.093 696.114Z" fill="url(#paint5_radial_2011_6105)" fill-opacity="0.2" style="mix-blend-mode:multiply"/>
<circle cx="913.644" cy="660.649" r="14.2715" fill="#111111"/>
<path fill-rule="evenodd" clip-rule="evenodd" d="M913.643 785.708C982.712 785.708 1038.7 729.718 1038.7 660.649C1038.7 591.581 982.712 535.59 913.643 535.59C844.575 535.59 788.584 591.581 788.584 660.649C788.584 729.718 844.575 785.708 913.643 785.708ZM913.643 728.321C951.017 728.321 981.315 698.023 981.315 660.649C981.315 623.275 951.017 592.977 913.643 592.977C876.269 592.977 845.972 623.275 845.972 660.649C845.972 698.023 876.269 728.321 913.643 728.321Z" fill="url(#paint6_radial_2011_6105)"/>
<path fill-rule="evenodd" clip-rule="evenodd" d="M913.644 741.321C958.198 741.321 994.316 705.203 994.316 660.649C994.316 616.095 958.198 579.978 913.644 579.978C869.091 579.978 832.973 616.095 832.973 660.649C832.973 705.203 869.091 741.321 913.644 741.321ZM924.179 727.506C920.746 728.042 917.228 728.321 913.644 728.321C903.781 728.321 894.411 726.211 885.96 722.417L912.136 672.469L924.179 727.506ZM931.03 726.067C943.976 722.635 955.4 715.462 964.074 705.776L918.974 670.972L931.03 726.067ZM968.47 700.326L923.251 665.431L981.274 663.057C980.788 676.954 976.112 689.785 968.47 700.326ZM981.163 656.056L922.965 658.437L966.674 618.605C974.95 629.03 980.217 641.951 981.163 656.056ZM962.044 613.353L918.25 653.264L926.199 594.14C940.119 596.751 952.536 603.625 962.044 613.353ZM919.261 593.207L911.313 652.329L879.556 602.178C889.566 596.329 901.214 592.978 913.644 592.978C915.536 592.978 917.409 593.055 919.261 593.207ZM873.701 606.017C862.743 614.043 854.29 625.285 849.731 638.354L905.398 656.074L873.701 606.017ZM847.773 645.077C846.596 650.077 845.973 655.29 845.973 660.649C845.973 669.051 847.504 677.094 850.302 684.517L903.275 662.744L847.773 645.077ZM853.109 690.931C859.037 702.758 868.33 712.607 879.731 719.223L905.936 669.219L853.109 690.931ZM912.785 662.466L912.289 661.922L911.764 662.254L912.762 664.682L912.874 664.657L912.785 662.466Z" fill="url(#paint7_radial_2011_6105)"/>
<path d="M969.127 534.173C949.604 519.553 925.359 510.894 899.091 510.894C837.556 510.894 787.12 558.417 782.482 618.763L969.127 534.173Z" fill="#11255A"/>
<path d="M969.127 534.173C949.604 519.553 925.359 510.894 899.091 510.894C837.556 510.894 787.12 558.417 782.482 618.763L969.127 534.173Z" fill="url(#paint8_linear_2011_6105)" style="mix-blend-mode:luminosity"/>
<path d="M969.127 534.173C949.604 519.553 925.359 510.894 899.091 510.894C837.556 510.894 787.12 558.417 782.482 618.763L969.127 534.173Z" fill="url(#paint9_linear_2011_6105)" fill-opacity="0.2" style="mix-blend-mode:luminosity"/>
<rect x="833.447" y="517.881" width="17.8818" height="37.2432" transform="rotate(-32.8811 833.447 517.881)" fill="#D9D9D9"/>
<rect x="833.447" y="517.881" width="17.8818" height="37.2432" transform="rotate(-32.8811 833.447 517.881)" fill="url(#paint10_linear_2011_6105)"/>
<rect x="849.121" y="548.665" width="24.9825" height="148.759" rx="4" transform="rotate(-32.8811 849.121 548.665)" fill="url(#paint11_linear_2011_6105)"/>
<path d="M703.229 346.803C703.106 346.404 702.746 346.113 702.329 346.131C701.684 346.16 701.226 346.305 700.733 346.591C700.367 346.803 700.222 347.25 700.339 347.657L707.457 372.352C707.486 372.45 707.527 372.545 707.591 372.624C708.024 373.157 708.864 373.549 709.348 373.525C709.45 373.52 709.552 373.5 709.655 373.5H716.687C717.347 373.5 717.826 372.871 717.651 372.234L714.227 359.821C714.096 359.348 713.641 359.041 713.152 359.088C710.878 359.308 709.464 359.298 707.633 359.081C707.247 359.035 706.926 358.762 706.811 358.39L703.229 346.803Z" fill="#1E1E1E"/>
<g filter="url(#filter2_i_2011_6105)">
<path d="M163.352 343.227C277.945 341.429 337.794 341.788 440 354.804C485.984 358.171 530 405.696 530 451.804L519.5 591.304C519.5 602.349 523.454 608.141 534.5 608.141H667.5C690.392 608.141 702.84 597.205 709.5 575.304L735.364 488.196C740.059 472.754 740.261 456.294 735.946 440.742L677.752 230.992C672.628 212.524 692.89 197.407 709.133 207.579L735.946 224.371L772.208 275.535C778.696 284.69 786.941 292.453 796.703 297.986C820.246 311.331 847.629 326.772 847.629 350.767L835.584 443.67C835.584 448.856 839.518 456.471 841.192 463.011C842.433 467.862 841.43 472.953 841.014 477.943L833.88 563.507C833.135 572.43 831.789 581.339 828.734 589.756C812.986 633.137 778.223 667.287 733.985 682.052L707.791 690.795C699 692.804 690.5 695.167 680.88 695.167H422.352C363.547 695.167 313.5 671.304 266.5 633.304C201.162 577.299 161.472 542.715 107.817 493.544C87.7052 475.113 66.9287 453.509 67.0347 426.229C67.2084 381.556 108.249 344.092 163.352 343.227Z" fill="url(#paint12_radial_2011_6105)"/>
</g>
<path d="M861.761 452.463C860.999 476.242 833.533 595.552 816.151 620.304C794.875 620.304 780.692 618.774 767.064 616.966C780.553 588.182 795.571 540.903 799.881 497.239C806.636 428.824 781.665 349.84 770.263 314.52C761.913 288.655 743.008 234.841 730.771 222.604C742.451 218.293 772.487 261.539 791.816 280.451C805.027 292.409 844.24 303.812 858.146 312.155C864.403 321.472 860.232 399.622 857.173 426.32C858.146 434.107 862.26 436.889 861.761 452.463Z" fill="#11255A"/>
<path d="M861.761 452.463C860.999 476.242 833.533 595.552 816.151 620.304C794.875 620.304 780.692 618.774 767.064 616.966C780.553 588.182 795.571 540.903 799.881 497.239C806.636 428.824 781.665 349.84 770.263 314.52C761.913 288.655 743.008 234.841 730.771 222.604C742.451 218.293 772.487 261.539 791.816 280.451C805.027 292.409 844.24 303.812 858.146 312.155C864.403 321.472 860.232 399.622 857.173 426.32C858.146 434.107 862.26 436.889 861.761 452.463Z" fill="url(#paint13_linear_2011_6105)" fill-opacity="0.3" style="mix-blend-mode:luminosity"/>
<path d="M861.761 452.463C860.999 476.242 833.533 595.552 816.151 620.304C794.875 620.304 780.692 618.774 767.064 616.966C780.553 588.182 795.571 540.903 799.881 497.239C806.636 428.824 781.665 349.84 770.263 314.52C761.913 288.655 743.008 234.841 730.771 222.604C742.451 218.293 772.487 261.539 791.816 280.451C805.027 292.409 844.24 303.812 858.146 312.155C864.403 321.472 860.232 399.622 857.173 426.32C858.146 434.107 862.26 436.889 861.761 452.463Z" fill="url(#paint14_linear_2011_6105)" fill-opacity="0.2" style="mix-blend-mode:luminosity"/>
<g filter="url(#filter3_i_2011_6105)">
<rect x="823.108" y="421.016" width="20.0241" height="10.8464" rx="5.42318" transform="rotate(-1.61408 823.108 421.016)" fill="#6F6F6F" fill-opacity="0.8"/>
<rect x="823.108" y="421.016" width="20.0241" height="10.8464" rx="5.42318" transform="rotate(-1.61408 823.108 421.016)" fill="#CEC089" fill-opacity="0.3"/>
</g>
<path fill-rule="evenodd" clip-rule="evenodd" d="M857.854 410.448C865.413 404.538 871.04 386.487 871.247 365.082C871.448 344.395 866.527 326.742 859.478 320.114C861.891 338.887 860.038 382.665 857.854 410.448Z" fill="#555555"/>
<path fill-rule="evenodd" clip-rule="evenodd" d="M857.854 410.448C865.413 404.538 871.04 386.487 871.247 365.082C871.448 344.395 866.527 326.742 859.478 320.114C861.891 338.887 860.038 382.665 857.854 410.448Z" fill="url(#paint15_radial_2011_6105)" fill-opacity="0.2"/>
<path fill-rule="evenodd" clip-rule="evenodd" d="M144.599 529.443C131.601 517.514 118.365 505.088 104.217 491.46C86.5634 474.454 68.7878 454.981 66.9986 430.534C64.5676 397.319 84.3751 367.628 117.882 352.928C132.926 367.526 162.004 374.958 199.785 384.615C212.472 387.858 226.14 391.352 240.588 395.452C251.977 398.684 266.273 402.993 282.455 407.87C358.355 430.745 475.737 466.123 529.192 461.541L519.736 587.304C519.736 588.649 519.817 589.975 519.979 591.268C487.465 599.915 419.179 589.814 338.275 574.105C284.652 563.693 203.987 544.298 144.599 529.443Z" fill="#11255A"/>
<path fill-rule="evenodd" clip-rule="evenodd" d="M144.599 529.443C131.601 517.514 118.365 505.088 104.217 491.46C86.5634 474.454 68.7878 454.981 66.9986 430.534C64.5676 397.319 84.3751 367.628 117.882 352.928C132.926 367.526 162.004 374.958 199.785 384.615C212.472 387.858 226.14 391.352 240.588 395.452C251.977 398.684 266.273 402.993 282.455 407.87C358.355 430.745 475.737 466.123 529.192 461.541L519.736 587.304C519.736 588.649 519.817 589.975 519.979 591.268C487.465 599.915 419.179 589.814 338.275 574.105C284.652 563.693 203.987 544.298 144.599 529.443Z" fill="url(#paint16_radial_2011_6105)" fill-opacity="0.5" style="mix-blend-mode:luminosity"/>
<path d="M79.525 349.353C80.1469 349.128 80.8469 349.145 81.4575 349.398C135.58 371.837 172.132 382.062 239.621 398.38C245.538 399.811 249.105 405.882 247.433 411.735V411.735C245.812 417.408 239.905 420.697 234.229 419.088L54.6988 368.19C52.6522 367.61 51.7947 365.166 53.1591 363.534C59.843 355.539 65.5876 354.377 79.525 349.353Z" fill="#111111"/>
<g filter="url(#filter4_f_2011_6105)">
<path d="M67 422.891C67.4406 412.161 70.0845 401.801 74.5935 392.304L116.78 403.167C125.208 405.337 130.281 413.928 128.11 422.356C125.94 430.784 117.349 435.856 108.921 433.686L67 422.891Z" fill="#D5A455" fill-opacity="0.3"/>
<path d="M67 422.891C67.4406 412.161 70.0845 401.801 74.5935 392.304L116.78 403.167C125.208 405.337 130.281 413.928 128.11 422.356C125.94 430.784 117.349 435.856 108.921 433.686L67 422.891Z" stroke="black" stroke-opacity="0.1" stroke-linecap="round" stroke-linejoin="round"/>
</g>
<g filter="url(#filter5_f_2011_6105)">
<path d="M67.4727 416.94C68.2535 410.33 69.8705 403.9 72.2412 397.771L115.212 408.836C120.494 410.197 123.673 415.581 122.313 420.863C120.953 426.146 115.568 429.325 110.286 427.965L67.4727 416.94Z" fill="#640600" fill-opacity="0.8"/>
</g>
<g filter="url(#filter6_f_2011_6105)">
<path d="M95.6943 408.215C96.2186 406.069 98.3833 404.754 100.529 405.279L114.689 408.738C120.099 410.059 123.413 415.516 122.091 420.925V420.925C120.77 426.335 115.313 429.649 109.904 428.327L95.7438 424.868C93.5978 424.344 92.283 422.179 92.8073 420.033L95.6943 408.215Z" fill="#FFBF65" fill-opacity="0.15"/>
</g>
<g filter="url(#filter7_d_2011_6105)">
<rect x="881.191" y="547.962" width="15.8902" height="57.5609" rx="7.94509" transform="rotate(-32.88 881.191 547.962)" fill="#704512"/>
<rect x="881.191" y="547.962" width="15.8902" height="57.5609" rx="7.94509" transform="rotate(-32.88 881.191 547.962)" fill="url(#paint17_linear_2011_6105)" fill-opacity="0.2"/>
</g>
<path d="M663.071 72.1456L679.315 130.218C681.293 137.286 681.999 144.649 681.402 151.964L678.458 188.026" stroke="#151515" stroke-width="8" stroke-linecap="round" stroke-linejoin="round"/>
<path d="M663.071 72.1456L679.315 130.218C681.293 137.286 681.999 144.649 681.402 151.964L678.458 188.026" stroke="url(#paint18_linear_2011_6105)" stroke-opacity="0.2" stroke-width="8" stroke-linecap="round" stroke-linejoin="round"/>
<ellipse cx="652.273" cy="54.821" rx="16.0396" ry="37.788" fill="#151515"/>
<ellipse cx="652.273" cy="54.821" rx="16.0396" ry="37.788" fill="url(#paint19_radial_2011_6105)" fill-opacity="0.15"/>
<rect x="704.892" y="148.7" width="18.8804" height="87.3091" rx="5" transform="rotate(30 704.892 148.7)" fill="#292929"/>
<path d="M637.255 151.946C629.03 148.716 619.744 152.766 616.515 160.992C613.286 169.217 617.336 178.503 625.561 181.732L637.255 151.946ZM673.947 183.54L688.595 177.102C686.894 173.231 683.73 170.191 679.794 168.646L673.947 183.54ZM625.561 181.732L668.1 198.433L679.794 168.646L637.255 151.946L625.561 181.732ZM659.299 189.977L684.678 247.723L713.974 234.848L688.595 177.102L659.299 189.977Z" fill="#151515"/>
<path d="M637.255 151.946C629.03 148.716 619.744 152.766 616.515 160.992C613.286 169.217 617.336 178.503 625.561 181.732L637.255 151.946ZM673.947 183.54L688.595 177.102C686.894 173.231 683.73 170.191 679.794 168.646L673.947 183.54ZM625.561 181.732L668.1 198.433L679.794 168.646L637.255 151.946L625.561 181.732ZM659.299 189.977L684.678 247.723L713.974 234.848L688.595 177.102L659.299 189.977Z" fill="url(#paint20_linear_2011_6105)" fill-opacity="0.1"/>
<defs>
<filter id="filter0_f_2011_6105" x="5.6" y="758.6" width="1024.8" height="46.8" filterUnits="userSpaceOnUse" color-interpolation-filters="sRGB">
<feFlood flood-opacity="0" result="BackgroundImageFix"/>
<feBlend mode="normal" in="SourceGraphic" in2="BackgroundImageFix" result="shape"/>
<feGaussianBlur stdDeviation="8.2" result="effect1_foregroundBlur_2011_6105"/>
</filter>
<filter id="filter1_i_2011_6105" x="3.85449" y="535.59" width="250.118" height="250.119" filterUnits="userSpaceOnUse" color-interpolation-filters="sRGB">
<feFlood flood-opacity="0" result="BackgroundImageFix"/>
<feBlend mode="normal" in="SourceGraphic" in2="BackgroundImageFix" result="shape"/>
<feColorMatrix in="SourceAlpha" type="matrix" values="0 0 0 0 0 0 0 0 0 0 0 0 0 0 0 0 0 0 127 0" result="hardAlpha"/>
<feMorphology radius="10" operator="erode" in="SourceAlpha" result="effect1_innerShadow_2011_6105"/>
<feOffset/>
<feGaussianBlur stdDeviation="4.9"/>
<feComposite in2="hardAlpha" operator="arithmetic" k2="-1" k3="1"/>
<feColorMatrix type="matrix" values="0 0 0 0 0 0 0 0 0 0 0 0 0 0 0 0 0 0 0.5 0"/>
<feBlend mode="normal" in2="shape" result="effect1_innerShadow_2011_6105"/>
</filter>
<filter id="filter2_i_2011_6105" x="67.0342" y="204.304" width="780.595" height="490.863" filterUnits="userSpaceOnUse" color-interpolation-filters="sRGB">
<feFlood flood-opacity="0" result="BackgroundImageFix"/>
<feBlend mode="normal" in="SourceGraphic" in2="BackgroundImageFix" result="shape"/>
<feColorMatrix in="SourceAlpha" type="matrix" values="0 0 0 0 0 0 0 0 0 0 0 0 0 0 0 0 0 0 127 0" result="hardAlpha"/>
<feOffset/>
<feGaussianBlur stdDeviation="5"/>
<feComposite in2="hardAlpha" operator="arithmetic" k2="-1" k3="1"/>
<feColorMatrix type="matrix" values="0 0 0 0 0 0 0 0 0 0 0 0 0 0 0 0 0 0 0.5 0"/>
<feBlend mode="normal" in2="shape" result="effect1_innerShadow_2011_6105"/>
</filter>
<filter id="filter3_i_2011_6105" x="823.259" y="420.602" width="20.0205" height="13.105" filterUnits="userSpaceOnUse" color-interpolation-filters="sRGB">
<feFlood flood-opacity="0" result="BackgroundImageFix"/>
<feBlend mode="normal" in="SourceGraphic" in2="BackgroundImageFix" result="shape"/>
<feColorMatrix in="SourceAlpha" type="matrix" values="0 0 0 0 0 0 0 0 0 0 0 0 0 0 0 0 0 0 127 0" result="hardAlpha"/>
<feOffset dy="2"/>
<feGaussianBlur stdDeviation="1"/>
<feComposite in2="hardAlpha" operator="arithmetic" k2="-1" k3="1"/>
<feColorMatrix type="matrix" values="0 0 0 0 0 0 0 0 0 0 0 0 0 0 0 0 0 0 0.1 0"/>
<feBlend mode="normal" in2="shape" result="effect1_innerShadow_2011_6105"/>
</filter>
<filter id="filter4_f_2011_6105" x="65.5" y="390.804" width="64.6123" height="44.8843" filterUnits="userSpaceOnUse" color-interpolation-filters="sRGB">
<feFlood flood-opacity="0" result="BackgroundImageFix"/>
<feBlend mode="normal" in="SourceGraphic" in2="BackgroundImageFix" result="shape"/>
<feGaussianBlur stdDeviation="0.5" result="effect1_foregroundBlur_2011_6105"/>
</filter>
<filter id="filter5_f_2011_6105" x="66.4727" y="396.771" width="57.1553" height="32.5078" filterUnits="userSpaceOnUse" color-interpolation-filters="sRGB">
<feFlood flood-opacity="0" result="BackgroundImageFix"/>
<feBlend mode="normal" in="SourceGraphic" in2="BackgroundImageFix" result="shape"/>
<feGaussianBlur stdDeviation="0.5" result="effect1_foregroundBlur_2011_6105"/>
</filter>
<filter id="filter6_f_2011_6105" x="91.1924" y="403.663" width="32.6895" height="26.4543" filterUnits="userSpaceOnUse" color-interpolation-filters="sRGB">
<feFlood flood-opacity="0" result="BackgroundImageFix"/>
<feBlend mode="normal" in="SourceGraphic" in2="BackgroundImageFix" result="shape"/>
<feGaussianBlur stdDeviation="0.75" result="effect1_foregroundBlur_2011_6105"/>
</filter>
<filter id="filter7_d_2011_6105" x="880.431" y="531.575" width="50.1137" height="62.4877" filterUnits="userSpaceOnUse" color-interpolation-filters="sRGB">
<feFlood flood-opacity="0" result="BackgroundImageFix"/>
<feColorMatrix in="SourceAlpha" type="matrix" values="0 0 0 0 0 0 0 0 0 0 0 0 0 0 0 0 0 0 127 0" result="hardAlpha"/>
<feMorphology radius="1" operator="dilate" in="SourceAlpha" result="effect1_dropShadow_2011_6105"/>
<feOffset dx="2" dy="-5"/>
<feGaussianBlur stdDeviation="2.4"/>
<feComposite in2="hardAlpha" operator="out"/>
<feColorMatrix type="matrix" values="0 0 0 0 0 0 0 0 0 0 0 0 0 0 0 0 0 0 0.25 0"/>
<feBlend mode="normal" in2="BackgroundImageFix" result="effect1_dropShadow_2011_6105"/>
<feBlend mode="normal" in="SourceGraphic" in2="effect1_dropShadow_2011_6105" result="shape"/>
</filter>
<linearGradient id="paint0_linear_2011_6105" x1="318.674" y1="655.104" x2="243.354" y2="655.104" gradientUnits="userSpaceOnUse">
<stop/>
<stop offset="0.553672" stop-opacity="0"/>
<stop offset="1"/>
</linearGradient>
<linearGradient id="paint1_linear_2011_6105" x1="154.671" y1="627.347" x2="193.586" y2="577.408" gradientUnits="userSpaceOnUse">
<stop stop-opacity="0"/>
<stop offset="1"/>
</linearGradient>
<radialGradient id="paint2_radial_2011_6105" cx="0" cy="0" r="1" gradientUnits="userSpaceOnUse" gradientTransform="translate(129 661) rotate(90.1639) scale(124.709)">
<stop offset="0.656387" stop-color="#323232"/>
<stop offset="0.763587" stop-color="#222222"/>
<stop offset="0.823945" stop-color="#232323"/>
<stop offset="0.86551" stop-color="#383737"/>
<stop offset="1" stop-color="#181818"/>
</radialGradient>
<radialGradient id="paint3_radial_2011_6105" cx="0" cy="0" r="1" gradientUnits="userSpaceOnUse" gradientTransform="translate(159.908 625.991) rotate(107.524) scale(102.934)">
<stop stop-color="white"/>
<stop offset="1" stop-color="white" stop-opacity="0"/>
</radialGradient>
<linearGradient id="paint4_linear_2011_6105" x1="904" y1="615" x2="946.5" y2="733" gradientUnits="userSpaceOnUse">
<stop stop-color="#E1E1E1"/>
<stop offset="1" stop-color="#606060"/>
</linearGradient>
<radialGradient id="paint5_radial_2011_6105" cx="0" cy="0" r="1" gradientUnits="userSpaceOnUse" gradientTransform="translate(932 644.5) rotate(88.6028) scale(82.0244)">
<stop stop-color="white"/>
<stop offset="1" stop-color="#373737"/>
</radialGradient>
<radialGradient id="paint6_radial_2011_6105" cx="0" cy="0" r="1" gradientUnits="userSpaceOnUse" gradientTransform="translate(914 661) rotate(90.1639) scale(124.709)">
<stop offset="0.656387" stop-color="#323232"/>
<stop offset="0.763587" stop-color="#222222"/>
<stop offset="0.823945" stop-color="#232323"/>
<stop offset="0.86551" stop-color="#292929"/>
<stop offset="1" stop-color="#181818"/>
</radialGradient>
<radialGradient id="paint7_radial_2011_6105" cx="0" cy="0" r="1" gradientUnits="userSpaceOnUse" gradientTransform="translate(922 668) rotate(74.7449) scale(68.4105 65.7347)">
<stop offset="0.268732" stop-color="#111111"/>
<stop offset="0.76648" stop-color="#1C1C1C"/>
<stop offset="0.826795" stop-color="#3F3F3F"/>
<stop offset="0.862781" stop-color="#464545"/>
<stop offset="0.913211" stop-color="#242424"/>
</radialGradient>
<linearGradient id="paint8_linear_2011_6105" x1="875.805" y1="570.662" x2="728.5" y2="474" gradientUnits="userSpaceOnUse">
<stop stop-opacity="0"/>
<stop offset="1"/>
</linearGradient>
<linearGradient id="paint9_linear_2011_6105" x1="782.482" y1="549.278" x2="962.747" y2="580.523" gradientUnits="userSpaceOnUse">
<stop/>
<stop offset="1" stop-color="white" stop-opacity="0.5"/>
</linearGradient>
<linearGradient id="paint10_linear_2011_6105" x1="851.346" y1="526.707" x2="833.173" y2="527.611" gradientUnits="userSpaceOnUse">
<stop stop-color="#505050"/>
<stop offset="0.494999" stop-color="#E7E7E7"/>
<stop offset="1" stop-color="#505050"/>
</linearGradient>
<linearGradient id="paint11_linear_2011_6105" x1="874.127" y1="583.918" x2="848.683" y2="584.361" gradientUnits="userSpaceOnUse">
<stop stop-color="#151515"/>
<stop offset="0.494999" stop-color="#2E2E2E"/>
<stop offset="1" stop-color="#151515"/>
</linearGradient>
<radialGradient id="paint12_radial_2011_6105" cx="0" cy="0" r="1" gradientUnits="userSpaceOnUse" gradientTransform="translate(457.766 403.998) rotate(92.1648) scale(291.208 758.687)">
<stop stop-color="#0F0F0F"/>
<stop offset="0.805869" stop-color="#0F0F0F"/>
<stop offset="0.852982" stop-color="#202020"/>
<stop offset="0.857581" stop-color="#202020"/>
<stop offset="0.970441" stop-color="#3C3C3C"/>
</radialGradient>
<linearGradient id="paint13_linear_2011_6105" x1="835.996" y1="580.315" x2="687.576" y2="432.573" gradientUnits="userSpaceOnUse">
<stop/>
<stop offset="1" stop-color="white" stop-opacity="0.5"/>
</linearGradient>
<linearGradient id="paint14_linear_2011_6105" x1="816.437" y1="352.213" x2="831.772" y2="345.979" gradientUnits="userSpaceOnUse">
<stop stop-opacity="0"/>
<stop offset="1"/>
</linearGradient>
<radialGradient id="paint15_radial_2011_6105" cx="0" cy="0" r="1" gradientUnits="userSpaceOnUse" gradientTransform="translate(863.034 365.304) scale(8.5 30.1455)">
<stop stop-color="white"/>
<stop offset="1" stop-color="white" stop-opacity="0"/>
</radialGradient>
<radialGradient id="paint16_radial_2011_6105" cx="0" cy="0" r="1" gradientUnits="userSpaceOnUse" gradientTransform="translate(324.729 474.07) rotate(-169.31) scale(262.487 207.365)">
<stop offset="0.615072" stop-color="#363636" stop-opacity="0"/>
<stop offset="1"/>
</radialGradient>
<linearGradient id="paint17_linear_2011_6105" x1="889.136" y1="547.962" x2="889.136" y2="605.523" gradientUnits="userSpaceOnUse">
<stop stop-color="white"/>
<stop offset="1"/>
</linearGradient>
<linearGradient id="paint18_linear_2011_6105" x1="655.166" y1="104.038" x2="676.644" y2="98.144" gradientUnits="userSpaceOnUse">
<stop stop-color="white"/>
<stop offset="1" stop-color="white" stop-opacity="0"/>
</linearGradient>
<radialGradient id="paint19_radial_2011_6105" cx="0" cy="0" r="1" gradientUnits="userSpaceOnUse" gradientTransform="translate(661.788 48.0246) rotate(102.047) scale(45.5884 19.3505)">
<stop stop-color="white"/>
<stop offset="1" stop-color="white" stop-opacity="0"/>
</radialGradient>
<linearGradient id="paint20_linear_2011_6105" x1="683.963" y1="205.078" x2="615.466" y2="174.634" gradientUnits="userSpaceOnUse">
<stop stop-color="white" stop-opacity="0"/>
<stop offset="1" stop-color="white"/>
</linearGradient>
</defs>
</svg>
