<svg width="1055" height="869" viewBox="0 0 1055 869" fill="none" xmlns="http://www.w3.org/2000/svg">
<g filter="url(#filter0_d_2020_27614)">
<path fill-rule="evenodd" clip-rule="evenodd" d="M858.99 413.102C866.548 407.191 872.176 389.14 872.383 367.736C872.584 347.049 867.663 329.396 860.614 322.768C863.027 341.541 861.174 385.318 858.99 413.102Z" fill="#828282"/>
<path fill-rule="evenodd" clip-rule="evenodd" d="M858.99 413.102C866.548 407.191 872.176 389.14 872.383 367.736C872.584 347.049 867.663 329.396 860.614 322.768C863.027 341.541 861.174 385.318 858.99 413.102Z" fill="url(#paint0_radial_2020_27614)"/>
<path fill-rule="evenodd" clip-rule="evenodd" d="M858.99 413.102C866.548 407.191 872.176 389.14 872.383 367.736C872.584 347.049 867.663 329.396 860.614 322.768C863.027 341.541 861.174 385.318 858.99 413.102Z" fill="url(#paint1_radial_2020_27614)"/>
</g>
<defs>
<filter id="filter0_d_2020_27614" x="843.99" y="302.768" width="53.3984" height="130.334" filterUnits="userSpaceOnUse" color-interpolation-filters="sRGB">
<feFlood flood-opacity="0" result="BackgroundImageFix"/>
<feColorMatrix in="SourceAlpha" type="matrix" values="0 0 0 0 0 0 0 0 0 0 0 0 0 0 0 0 0 0 127 0" result="hardAlpha"/>
<feOffset dx="5"/>
<feGaussianBlur stdDeviation="10"/>
<feComposite in2="hardAlpha" operator="out"/>
<feColorMatrix type="matrix" values="0 0 0 0 1 0 0 0 0 1 0 0 0 0 1 0 0 0 0.25 0"/>
<feBlend mode="normal" in2="BackgroundImageFix" result="effect1_dropShadow_2020_27614"/>
<feBlend mode="normal" in="SourceGraphic" in2="effect1_dropShadow_2020_27614" result="shape"/>
</filter>
<radialGradient id="paint0_radial_2020_27614" cx="0" cy="0" r="1" gradientUnits="userSpaceOnUse" gradientTransform="translate(860.99 367.768) scale(7 69.0128)">
<stop stop-color="white"/>
<stop offset="1" stop-color="white" stop-opacity="0"/>
</radialGradient>
<radialGradient id="paint1_radial_2020_27614" cx="0" cy="0" r="1" gradientUnits="userSpaceOnUse" gradientTransform="translate(868.49 367.768) scale(13 35.0497)">
<stop offset="0.270921" stop-color="white"/>
<stop offset="1" stop-color="white" stop-opacity="0"/>
</radialGradient>
</defs>
</svg>
