<svg width="1055" height="869" viewBox="0 0 1055 869" fill="none" xmlns="http://www.w3.org/2000/svg">
<g filter="url(#filter0_f_2011_7035)">
<ellipse cx="461.5" cy="787" rx="412.5" ry="7" fill="black" fill-opacity="0.3"/>
</g>
<g filter="url(#filter1_f_2011_7035)">
<rect width="904" height="39" rx="19.5" transform="matrix(1 0 0 -1 25 788.304)" fill="url(#paint0_radial_2011_7035)" fill-opacity="0.29"/>
</g>
<ellipse cx="850.355" cy="362.904" rx="18.3603" ry="47.592" transform="rotate(0.556007 850.355 362.904)" fill="#555555"/>
<ellipse cx="850.355" cy="362.904" rx="18.3603" ry="47.592" transform="rotate(0.556007 850.355 362.904)" fill="url(#paint1_radial_2011_7035)" fill-opacity="0.2"/>
<path d="M703.23 346.803C703.107 346.404 702.747 346.113 702.33 346.131C701.685 346.16 701.227 346.305 700.734 346.591C700.368 346.803 700.223 347.25 700.34 347.657L707.458 372.352C707.486 372.45 707.528 372.545 707.592 372.624C708.025 373.157 708.865 373.549 709.349 373.525C709.451 373.52 709.553 373.5 709.656 373.5H716.688C717.348 373.5 717.827 372.871 717.652 372.234L714.228 359.821C714.097 359.348 713.642 359.041 713.153 359.088C710.879 359.308 709.465 359.298 707.634 359.081C707.248 359.035 706.927 358.762 706.812 358.39L703.23 346.803Z" fill="#1E1E1E"/>
<g filter="url(#filter2_i_2011_7035)">
<path d="M163.587 343.23L441.177 357.756C487.162 361.123 529 409.196 529 455.304L518.5 591.804C518.5 602.849 521.954 610.304 533 610.304L660.585 608.143C683.477 608.143 703.676 593.174 710.336 571.272L735.598 488.199C740.294 472.757 740.496 456.297 736.181 440.744L677.986 230.994C672.862 212.526 693.124 197.41 709.367 207.582L736.181 224.374L772.442 275.537C778.93 284.692 787.175 292.455 796.937 297.989C820.48 311.334 847.864 326.775 847.864 350.769L835.818 443.672C835.818 448.858 839.753 456.473 841.426 463.013C842.668 467.864 841.665 472.955 841.249 477.945L834.114 563.51C833.37 572.433 832.024 581.342 828.968 589.759C813.22 633.14 778.458 667.289 734.22 682.054L708.025 690.797C699.349 693.693 690.261 695.17 681.114 695.17H422.587C363.781 695.17 307.076 673.308 263.49 633.832L109.402 494.275C88.4567 475.305 66.8927 452.976 67.2403 424.718C67.8037 378.917 108.564 339.2 163.587 343.23Z" fill="url(#paint2_radial_2011_7035)"/>
</g>
<path d="M862.76 455.463C861.998 479.242 834.532 598.552 817.15 623.304C795.874 623.304 781.691 621.774 768.063 619.966C781.552 591.182 796.57 543.903 800.88 500.239C807.635 431.824 782.664 352.84 771.262 317.52C762.912 291.655 744.007 237.841 731.77 225.604C743.45 221.293 773.486 264.539 792.815 283.451C806.026 295.409 845.239 306.812 859.145 315.155C865.402 324.472 861.231 402.622 858.172 429.32C859.145 437.107 863.259 439.889 862.76 455.463Z" fill="#CBFAFF"/>
<path d="M862.76 455.463C861.998 479.242 834.532 598.552 817.15 623.304C795.874 623.304 781.691 621.774 768.063 619.966C781.552 591.182 796.57 543.903 800.88 500.239C807.635 431.824 782.664 352.84 771.262 317.52C762.912 291.655 744.007 237.841 731.77 225.604C743.45 221.293 773.486 264.539 792.815 283.451C806.026 295.409 845.239 306.812 859.145 315.155C865.402 324.472 861.231 402.622 858.172 429.32C859.145 437.107 863.259 439.889 862.76 455.463Z" fill="url(#paint3_linear_2011_7035)" fill-opacity="0.3" style="mix-blend-mode:luminosity"/>
<path d="M862.76 455.463C861.998 479.242 834.532 598.552 817.15 623.304C795.874 623.304 781.691 621.774 768.063 619.966C781.552 591.182 796.57 543.903 800.88 500.239C807.635 431.824 782.664 352.84 771.262 317.52C762.912 291.655 744.007 237.841 731.77 225.604C743.45 221.293 773.486 264.539 792.815 283.451C806.026 295.409 845.239 306.812 859.145 315.155C865.402 324.472 861.231 402.622 858.172 429.32C859.145 437.107 863.259 439.889 862.76 455.463Z" fill="url(#paint4_linear_2011_7035)" fill-opacity="0.2" style="mix-blend-mode:luminosity"/>
<g filter="url(#filter3_i_2011_7035)">
<rect x="824.109" y="424.016" width="20.0241" height="10.8464" rx="5.42318" transform="rotate(-1.61408 824.109 424.016)" fill="#6F6F6F" fill-opacity="0.8"/>
<rect x="824.109" y="424.016" width="20.0241" height="10.8464" rx="5.42318" transform="rotate(-1.61408 824.109 424.016)" fill="#CEC089" fill-opacity="0.3"/>
</g>
<path fill-rule="evenodd" clip-rule="evenodd" d="M858.855 413.448C866.414 407.538 872.041 389.487 872.248 368.082C872.449 347.395 867.528 329.742 860.479 323.114C862.892 341.887 861.039 385.665 858.855 413.448Z" fill="#555555"/>
<path fill-rule="evenodd" clip-rule="evenodd" d="M858.855 413.448C866.414 407.538 872.041 389.487 872.248 368.082C872.449 347.395 867.528 329.742 860.479 323.114C862.892 341.887 861.039 385.665 858.855 413.448Z" fill="url(#paint5_radial_2011_7035)" fill-opacity="0.2"/>
<path fill-rule="evenodd" clip-rule="evenodd" d="M144.6 529.443C131.601 517.514 118.366 505.088 104.218 491.46C86.5644 474.454 68.7888 454.981 66.9996 430.534C64.5686 397.319 84.3761 367.628 117.883 352.928C132.927 367.526 162.005 374.958 199.786 384.615C212.473 387.858 226.141 391.352 240.589 395.452C251.978 398.684 266.274 402.993 282.456 407.87C358.356 430.745 475.738 466.123 529.193 461.541L519.737 587.304C519.737 588.649 519.818 589.975 519.98 591.268C487.466 599.915 419.18 589.814 338.276 574.105C284.653 563.693 203.988 544.298 144.6 529.443Z" fill="#CBFAFF"/>
<path fill-rule="evenodd" clip-rule="evenodd" d="M144.6 529.443C131.601 517.514 118.366 505.088 104.218 491.46C86.5644 474.454 68.7888 454.981 66.9996 430.534C64.5686 397.319 84.3761 367.628 117.883 352.928C132.927 367.526 162.005 374.958 199.786 384.615C212.473 387.858 226.141 391.352 240.589 395.452C251.978 398.684 266.274 402.993 282.456 407.87C358.356 430.745 475.738 466.123 529.193 461.541L519.737 587.304C519.737 588.649 519.818 589.975 519.98 591.268C487.466 599.915 419.18 589.814 338.276 574.105C284.653 563.693 203.988 544.298 144.6 529.443Z" fill="url(#paint6_radial_2011_7035)" fill-opacity="0.5" style="mix-blend-mode:luminosity"/>
<path d="M79.526 349.353C80.1479 349.128 80.8479 349.145 81.4585 349.398C135.581 371.837 172.133 382.062 239.622 398.38C245.539 399.811 249.106 405.882 247.434 411.735V411.735C245.813 417.408 239.906 420.697 234.23 419.088L54.6997 368.19C52.6532 367.61 51.7957 365.166 53.1601 363.534C59.844 355.539 65.5886 354.377 79.526 349.353Z" fill="#111111"/>
<g filter="url(#filter4_f_2011_7035)">
<path d="M67 422.891C67.4406 412.161 70.0845 401.801 74.5935 392.304L116.78 403.167C125.208 405.337 130.281 413.928 128.11 422.356C125.94 430.784 117.349 435.856 108.921 433.686L67 422.891Z" fill="#D5A455" fill-opacity="0.3"/>
<path d="M67 422.891C67.4406 412.161 70.0845 401.801 74.5935 392.304L116.78 403.167C125.208 405.337 130.281 413.928 128.11 422.356C125.94 430.784 117.349 435.856 108.921 433.686L67 422.891Z" stroke="black" stroke-opacity="0.1" stroke-linecap="round" stroke-linejoin="round"/>
</g>
<g filter="url(#filter5_f_2011_7035)">
<path d="M67.4727 416.94C68.2535 410.33 69.8705 403.9 72.2412 397.771L115.212 408.836C120.494 410.197 123.673 415.581 122.313 420.863C120.953 426.146 115.568 429.325 110.286 427.965L67.4727 416.94Z" fill="#640600" fill-opacity="0.8"/>
</g>
<g filter="url(#filter6_f_2011_7035)">
<path d="M95.6953 408.215C96.2195 406.069 98.3842 404.754 100.53 405.279L114.69 408.738C120.1 410.059 123.414 415.516 122.092 420.925V420.925C120.771 426.335 115.314 429.649 109.905 428.327L95.7448 424.868C93.5987 424.344 92.284 422.179 92.8083 420.033L95.6953 408.215Z" fill="#FFBF65" fill-opacity="0.15"/>
</g>
<path d="M663.07 72.1456L679.314 130.218C681.292 137.286 681.998 144.649 681.401 151.964L678.457 188.026" stroke="#151515" stroke-width="8" stroke-linecap="round" stroke-linejoin="round"/>
<path d="M663.07 72.1456L679.314 130.218C681.292 137.286 681.998 144.649 681.401 151.964L678.457 188.026" stroke="url(#paint7_linear_2011_7035)" stroke-opacity="0.2" stroke-width="8" stroke-linecap="round" stroke-linejoin="round"/>
<ellipse cx="652.274" cy="54.821" rx="16.0396" ry="37.788" fill="#151515"/>
<ellipse cx="652.274" cy="54.821" rx="16.0396" ry="37.788" fill="url(#paint8_radial_2011_7035)" fill-opacity="0.15"/>
<rect x="704.891" y="148.7" width="18.8804" height="87.3091" rx="5" transform="rotate(30 704.891 148.7)" fill="#292929"/>
<path d="M637.255 151.946C629.03 148.716 619.744 152.766 616.515 160.992C613.286 169.217 617.336 178.503 625.561 181.732L637.255 151.946ZM673.947 183.54L688.595 177.102C686.894 173.231 683.73 170.191 679.794 168.646L673.947 183.54ZM625.561 181.732L668.1 198.433L679.794 168.646L637.255 151.946L625.561 181.732ZM659.299 189.977L684.678 247.723L713.974 234.848L688.595 177.102L659.299 189.977Z" fill="#151515"/>
<path d="M637.255 151.946C629.03 148.716 619.744 152.766 616.515 160.992C613.286 169.217 617.336 178.503 625.561 181.732L637.255 151.946ZM673.947 183.54L688.595 177.102C686.894 173.231 683.73 170.191 679.794 168.646L673.947 183.54ZM625.561 181.732L668.1 198.433L679.794 168.646L637.255 151.946L625.561 181.732ZM659.299 189.977L684.678 247.723L713.974 234.848L688.595 177.102L659.299 189.977Z" fill="url(#paint9_linear_2011_7035)" fill-opacity="0.1"/>
<defs>
<filter id="filter0_f_2011_7035" x="32.6" y="763.6" width="857.8" height="46.8" filterUnits="userSpaceOnUse" color-interpolation-filters="sRGB">
<feFlood flood-opacity="0" result="BackgroundImageFix"/>
<feBlend mode="normal" in="SourceGraphic" in2="BackgroundImageFix" result="shape"/>
<feGaussianBlur stdDeviation="8.2" result="effect1_foregroundBlur_2011_7035"/>
</filter>
<filter id="filter1_f_2011_7035" x="16.34" y="740.644" width="921.32" height="56.32" filterUnits="userSpaceOnUse" color-interpolation-filters="sRGB">
<feFlood flood-opacity="0" result="BackgroundImageFix"/>
<feBlend mode="normal" in="SourceGraphic" in2="BackgroundImageFix" result="shape"/>
<feGaussianBlur stdDeviation="4.33" result="effect1_foregroundBlur_2011_7035"/>
</filter>
<filter id="filter2_i_2011_7035" x="67.2363" y="204.306" width="780.627" height="490.863" filterUnits="userSpaceOnUse" color-interpolation-filters="sRGB">
<feFlood flood-opacity="0" result="BackgroundImageFix"/>
<feBlend mode="normal" in="SourceGraphic" in2="BackgroundImageFix" result="shape"/>
<feColorMatrix in="SourceAlpha" type="matrix" values="0 0 0 0 0 0 0 0 0 0 0 0 0 0 0 0 0 0 127 0" result="hardAlpha"/>
<feOffset/>
<feGaussianBlur stdDeviation="5"/>
<feComposite in2="hardAlpha" operator="arithmetic" k2="-1" k3="1"/>
<feColorMatrix type="matrix" values="0 0 0 0 0 0 0 0 0 0 0 0 0 0 0 0 0 0 0.5 0"/>
<feBlend mode="normal" in2="shape" result="effect1_innerShadow_2011_7035"/>
</filter>
<filter id="filter3_i_2011_7035" x="824.26" y="423.602" width="20.0215" height="13.105" filterUnits="userSpaceOnUse" color-interpolation-filters="sRGB">
<feFlood flood-opacity="0" result="BackgroundImageFix"/>
<feBlend mode="normal" in="SourceGraphic" in2="BackgroundImageFix" result="shape"/>
<feColorMatrix in="SourceAlpha" type="matrix" values="0 0 0 0 0 0 0 0 0 0 0 0 0 0 0 0 0 0 127 0" result="hardAlpha"/>
<feOffset dy="2"/>
<feGaussianBlur stdDeviation="1"/>
<feComposite in2="hardAlpha" operator="arithmetic" k2="-1" k3="1"/>
<feColorMatrix type="matrix" values="0 0 0 0 0 0 0 0 0 0 0 0 0 0 0 0 0 0 0.1 0"/>
<feBlend mode="normal" in2="shape" result="effect1_innerShadow_2011_7035"/>
</filter>
<filter id="filter4_f_2011_7035" x="65.5" y="390.804" width="64.6113" height="44.8843" filterUnits="userSpaceOnUse" color-interpolation-filters="sRGB">
<feFlood flood-opacity="0" result="BackgroundImageFix"/>
<feBlend mode="normal" in="SourceGraphic" in2="BackgroundImageFix" result="shape"/>
<feGaussianBlur stdDeviation="0.5" result="effect1_foregroundBlur_2011_7035"/>
</filter>
<filter id="filter5_f_2011_7035" x="66.4727" y="396.771" width="57.1543" height="32.5078" filterUnits="userSpaceOnUse" color-interpolation-filters="sRGB">
<feFlood flood-opacity="0" result="BackgroundImageFix"/>
<feBlend mode="normal" in="SourceGraphic" in2="BackgroundImageFix" result="shape"/>
<feGaussianBlur stdDeviation="0.5" result="effect1_foregroundBlur_2011_7035"/>
</filter>
<filter id="filter6_f_2011_7035" x="91.1934" y="403.663" width="32.6895" height="26.4543" filterUnits="userSpaceOnUse" color-interpolation-filters="sRGB">
<feFlood flood-opacity="0" result="BackgroundImageFix"/>
<feBlend mode="normal" in="SourceGraphic" in2="BackgroundImageFix" result="shape"/>
<feGaussianBlur stdDeviation="0.75" result="effect1_foregroundBlur_2011_7035"/>
</filter>
<radialGradient id="paint0_radial_2011_7035" cx="0" cy="0" r="1" gradientUnits="userSpaceOnUse" gradientTransform="translate(452 19.5) rotate(180) scale(452 19.5)">
<stop offset="0.601383" stop-color="#00D0FF"/>
<stop offset="1" stop-color="#006F88" stop-opacity="0"/>
</radialGradient>
<radialGradient id="paint1_radial_2011_7035" cx="0" cy="0" r="1" gradientUnits="userSpaceOnUse" gradientTransform="translate(860.504 363.205) rotate(-0.556016) scale(8.5 30.1455)">
<stop stop-color="white"/>
<stop offset="1" stop-color="white" stop-opacity="0"/>
</radialGradient>
<radialGradient id="paint2_radial_2011_7035" cx="0" cy="0" r="1" gradientUnits="userSpaceOnUse" gradientTransform="translate(458 404) rotate(92.1648) scale(291.208 758.687)">
<stop stop-color="#0F0F0F"/>
<stop offset="0.805869" stop-color="#0F0F0F"/>
<stop offset="0.852982" stop-color="#202020"/>
<stop offset="0.857581" stop-color="#202020"/>
<stop offset="0.970441" stop-color="#1D4652"/>
</radialGradient>
<linearGradient id="paint3_linear_2011_7035" x1="836.995" y1="583.315" x2="688.575" y2="435.573" gradientUnits="userSpaceOnUse">
<stop/>
<stop offset="1" stop-color="white" stop-opacity="0.5"/>
</linearGradient>
<linearGradient id="paint4_linear_2011_7035" x1="817.436" y1="355.213" x2="832.771" y2="348.979" gradientUnits="userSpaceOnUse">
<stop stop-opacity="0"/>
<stop offset="1"/>
</linearGradient>
<radialGradient id="paint5_radial_2011_7035" cx="0" cy="0" r="1" gradientUnits="userSpaceOnUse" gradientTransform="translate(864.035 368.304) scale(8.5 30.1455)">
<stop stop-color="white"/>
<stop offset="1" stop-color="white" stop-opacity="0"/>
</radialGradient>
<radialGradient id="paint6_radial_2011_7035" cx="0" cy="0" r="1" gradientUnits="userSpaceOnUse" gradientTransform="translate(324.73 474.07) rotate(-169.31) scale(262.487 207.365)">
<stop offset="0.615072" stop-color="#363636" stop-opacity="0"/>
<stop offset="1"/>
</radialGradient>
<linearGradient id="paint7_linear_2011_7035" x1="655.165" y1="104.038" x2="676.643" y2="98.144" gradientUnits="userSpaceOnUse">
<stop stop-color="white"/>
<stop offset="1" stop-color="white" stop-opacity="0"/>
</linearGradient>
<radialGradient id="paint8_radial_2011_7035" cx="0" cy="0" r="1" gradientUnits="userSpaceOnUse" gradientTransform="translate(661.789 48.0246) rotate(102.047) scale(45.5884 19.3505)">
<stop stop-color="white"/>
<stop offset="1" stop-color="white" stop-opacity="0"/>
</radialGradient>
<linearGradient id="paint9_linear_2011_7035" x1="683.963" y1="205.078" x2="615.466" y2="174.634" gradientUnits="userSpaceOnUse">
<stop stop-color="white" stop-opacity="0"/>
<stop offset="1" stop-color="white"/>
</linearGradient>
</defs>
</svg>
