<svg width="1055" height="869" viewBox="0 0 1055 869" fill="none" xmlns="http://www.w3.org/2000/svg">
<g filter="url(#filter0_f_2011_7035)">
<rect x="25" y="780.304" width="882" height="7" rx="3.5" fill="black"/>
</g>
<g filter="url(#filter1_f_2011_7035)">
<rect width="904" height="39" rx="19.5" transform="matrix(1 0 0 -1 25 788.304)" fill="url(#paint0_radial_2011_7035)" fill-opacity="0.29"/>
</g>
<ellipse cx="850.355" cy="362.904" rx="18.3603" ry="47.592" transform="rotate(0.556007 850.355 362.904)" fill="white" fill-opacity="0.3"/>
<path d="M703.23 346.803C703.107 346.404 702.747 346.113 702.33 346.131C701.685 346.16 701.227 346.305 700.734 346.591C700.368 346.803 700.223 347.25 700.34 347.657L707.458 372.352C707.486 372.45 707.528 372.545 707.592 372.624C708.025 373.157 708.865 373.549 709.349 373.525C709.451 373.52 709.553 373.5 709.656 373.5H716.688C717.348 373.5 717.827 372.871 717.652 372.234L714.228 359.821C714.097 359.348 713.642 359.041 713.153 359.088C710.879 359.308 709.465 359.298 707.634 359.081C707.248 359.035 706.927 358.762 706.812 358.39L703.23 346.803Z" fill="#1E1E1E"/>
<g filter="url(#filter2_i_2011_7035)">
<path d="M163.587 343.23L441.177 357.756C487.162 361.123 526.5 405.893 526.5 452L522.75 588.143C522.75 599.189 531.704 608.143 542.75 608.143H660.585C683.477 608.143 703.676 593.174 710.336 571.272L735.598 488.199C740.294 472.757 740.496 456.297 736.181 440.744L677.986 230.994C672.862 212.526 693.124 197.41 709.367 207.582L736.181 224.374L772.442 275.537C778.93 284.692 787.175 292.455 796.937 297.989C820.48 311.334 847.864 326.775 847.864 350.769L835.818 443.672C835.818 448.858 839.753 456.473 841.426 463.013C842.668 467.864 841.665 472.955 841.249 477.945L834.114 563.51C833.37 572.433 832.024 581.342 828.968 589.759C813.22 633.14 778.458 667.289 734.22 682.054L708.025 690.797C699.349 693.693 690.261 695.17 681.114 695.17H422.587C363.781 695.17 307.076 673.308 263.49 633.832L109.402 494.275C88.4567 475.305 66.8927 452.976 67.2403 424.718C67.8037 378.917 108.564 339.2 163.587 343.23Z" fill="url(#paint1_radial_2011_7035)"/>
</g>
<path fill-rule="evenodd" clip-rule="evenodd" d="M736.465 225.304L787.169 276.641C793.24 282.788 800.466 287.696 808.498 290.877C814.663 293.319 820.095 295.384 824.908 297.214C841.102 303.371 850.282 306.862 856.794 313.069C863.843 319.79 862.293 368.753 859.695 401.833C858.275 419.905 857.011 438.031 857.443 456.154L857.502 458.644C857.832 472.509 856.79 486.398 853.943 499.972C847.897 528.803 842.25 547.854 832.994 576.92C827.605 596.588 818.915 614.296 807.495 629.562L769.831 618.191C805.241 538.758 807.156 479.422 788.015 393.289C773.55 328.197 748.837 257.412 736.465 225.304Z" fill="#CBFAFF"/>
<path fill-rule="evenodd" clip-rule="evenodd" d="M736.465 225.304L787.169 276.641C793.24 282.788 800.466 287.696 808.498 290.877C814.663 293.319 820.095 295.384 824.908 297.214C841.102 303.371 850.282 306.862 856.794 313.069C863.843 319.79 862.293 368.753 859.695 401.833C858.275 419.905 857.011 438.031 857.443 456.154L857.502 458.644C857.832 472.509 856.79 486.398 853.943 499.972C847.897 528.803 842.25 547.854 832.994 576.92C827.605 596.588 818.915 614.296 807.495 629.562L769.831 618.191C805.241 538.758 807.156 479.422 788.015 393.289C773.55 328.197 748.837 257.412 736.465 225.304Z" fill="url(#paint2_linear_2011_7035)" fill-opacity="0.3" style="mix-blend-mode:luminosity"/>
<path fill-rule="evenodd" clip-rule="evenodd" d="M736.465 225.304L787.169 276.641C793.24 282.788 800.466 287.696 808.498 290.877C814.663 293.319 820.095 295.384 824.908 297.214C841.102 303.371 850.282 306.862 856.794 313.069C863.843 319.79 862.293 368.753 859.695 401.833C858.275 419.905 857.011 438.031 857.443 456.154L857.502 458.644C857.832 472.509 856.79 486.398 853.943 499.972C847.897 528.803 842.25 547.854 832.994 576.92C827.605 596.588 818.915 614.296 807.495 629.562L769.831 618.191C805.241 538.758 807.156 479.422 788.015 393.289C773.55 328.197 748.837 257.412 736.465 225.304Z" fill="url(#paint3_linear_2011_7035)" fill-opacity="0.2" style="mix-blend-mode:luminosity"/>
<path fill-rule="evenodd" clip-rule="evenodd" d="M144.6 529.443C131.601 517.514 118.366 505.088 104.218 491.46C86.5644 474.454 68.7888 454.981 66.9996 430.534C64.5686 397.319 84.3761 367.628 117.883 352.928C132.927 367.526 162.005 374.958 199.786 384.615C212.473 387.858 226.141 391.352 240.589 395.452C251.978 398.684 266.274 402.993 282.456 407.87C358.356 430.745 475.738 466.123 529.193 461.541L519.737 587.304C519.737 588.649 519.818 589.975 519.98 591.268C487.466 599.915 419.18 589.814 338.276 574.105C284.653 563.693 203.988 544.298 144.6 529.443Z" fill="#CBFAFF"/>
<path fill-rule="evenodd" clip-rule="evenodd" d="M144.6 529.443C131.601 517.514 118.366 505.088 104.218 491.46C86.5644 474.454 68.7888 454.981 66.9996 430.534C64.5686 397.319 84.3761 367.628 117.883 352.928C132.927 367.526 162.005 374.958 199.786 384.615C212.473 387.858 226.141 391.352 240.589 395.452C251.978 398.684 266.274 402.993 282.456 407.87C358.356 430.745 475.738 466.123 529.193 461.541L519.737 587.304C519.737 588.649 519.818 589.975 519.98 591.268C487.466 599.915 419.18 589.814 338.276 574.105C284.653 563.693 203.988 544.298 144.6 529.443Z" fill="url(#paint4_radial_2011_7035)" fill-opacity="0.5" style="mix-blend-mode:luminosity"/>
<path d="M79.526 349.353C80.1479 349.128 80.8479 349.145 81.4585 349.398C135.581 371.837 172.133 382.062 239.622 398.38C245.539 399.811 249.106 405.882 247.434 411.735V411.735C245.813 417.408 239.906 420.697 234.23 419.088L54.6997 368.19C52.6532 367.61 51.7957 365.166 53.1601 363.534C59.844 355.539 65.5886 354.377 79.526 349.353Z" fill="#111111"/>
<g filter="url(#filter3_f_2011_7035)">
<path fill-rule="evenodd" clip-rule="evenodd" d="M67.3008 422.475C67.7414 411.744 70.3853 401.385 74.8943 391.887L117.081 402.75C125.509 404.92 130.581 413.512 128.411 421.939C126.241 430.367 117.65 435.44 109.222 433.27L67.3008 422.475Z" fill="#D5A455" fill-opacity="0.3"/>
<path d="M67.3008 422.475L66.8012 422.454C66.7915 422.69 66.9478 422.9 67.1761 422.959L67.3008 422.475ZM74.8943 391.887L75.019 391.403C74.787 391.343 74.5453 391.456 74.4426 391.673L74.8943 391.887ZM117.081 402.75L117.206 402.266L117.206 402.266L117.081 402.75ZM128.411 421.939L127.927 421.815L127.927 421.815L128.411 421.939ZM109.222 433.27L109.097 433.754L109.097 433.754L109.222 433.27ZM67.8004 422.495C68.2381 411.834 70.865 401.54 75.346 392.102L74.4426 391.673C69.9056 401.229 67.2446 411.655 66.8012 422.454L67.8004 422.495ZM74.7696 392.371L116.956 403.234L117.206 402.266L75.019 391.403L74.7696 392.371ZM116.956 403.234C125.117 405.336 130.028 413.654 127.927 421.815L128.895 422.064C131.134 413.369 125.901 404.505 117.206 402.266L116.956 403.234ZM127.927 421.815C125.826 429.975 117.507 434.887 109.347 432.786L109.097 433.754C117.793 435.993 126.656 430.759 128.895 422.064L127.927 421.815ZM109.347 432.786L67.4255 421.991L67.1761 422.959L109.097 433.754L109.347 432.786Z" fill="black" fill-opacity="0.1"/>
</g>
<g filter="url(#filter4_f_2011_7035)">
<path fill-rule="evenodd" clip-rule="evenodd" d="M67.7734 416.524C68.5543 409.913 70.1713 403.484 72.542 397.355L115.513 408.42C120.795 409.78 123.974 415.165 122.614 420.447C121.254 425.729 115.869 428.908 110.587 427.548L67.7734 416.524Z" fill="#640600" fill-opacity="0.8"/>
</g>
<path d="M663.07 72.1456L679.314 130.218C681.292 137.286 681.998 144.649 681.401 151.964L678.457 188.026" stroke="#151515" stroke-width="8" stroke-linecap="round" stroke-linejoin="round"/>
<path d="M663.07 72.1456L679.314 130.218C681.292 137.286 681.998 144.649 681.401 151.964L678.457 188.026" stroke="url(#paint5_linear_2011_7035)" stroke-opacity="0.2" stroke-width="8" stroke-linecap="round" stroke-linejoin="round"/>
<ellipse cx="652.274" cy="54.821" rx="16.0396" ry="37.788" fill="#151515"/>
<ellipse cx="652.274" cy="54.821" rx="16.0396" ry="37.788" fill="url(#paint6_radial_2011_7035)" fill-opacity="0.15"/>
<rect x="704.891" y="148.7" width="18.8804" height="87.3091" rx="5" transform="rotate(30 704.891 148.7)" fill="#292929"/>
<path d="M637.255 151.946C629.03 148.716 619.744 152.766 616.515 160.992C613.286 169.217 617.336 178.503 625.561 181.732L637.255 151.946ZM673.947 183.54L688.595 177.102C686.894 173.231 683.73 170.191 679.794 168.646L673.947 183.54ZM625.561 181.732L668.1 198.433L679.794 168.646L637.255 151.946L625.561 181.732ZM659.299 189.977L684.678 247.723L713.974 234.848L688.595 177.102L659.299 189.977Z" fill="#151515"/>
<path d="M637.255 151.946C629.03 148.716 619.744 152.766 616.515 160.992C613.286 169.217 617.336 178.503 625.561 181.732L637.255 151.946ZM673.947 183.54L688.595 177.102C686.894 173.231 683.73 170.191 679.794 168.646L673.947 183.54ZM625.561 181.732L668.1 198.433L679.794 168.646L637.255 151.946L625.561 181.732ZM659.299 189.977L684.678 247.723L713.974 234.848L688.595 177.102L659.299 189.977Z" fill="url(#paint7_linear_2011_7035)" fill-opacity="0.1"/>
<defs>
<filter id="filter0_f_2011_7035" x="8.6" y="763.904" width="914.8" height="39.8" filterUnits="userSpaceOnUse" color-interpolation-filters="sRGB">
<feFlood flood-opacity="0" result="BackgroundImageFix"/>
<feBlend mode="normal" in="SourceGraphic" in2="BackgroundImageFix" result="shape"/>
<feGaussianBlur stdDeviation="8.2" result="effect1_foregroundBlur_2011_7035"/>
</filter>
<filter id="filter1_f_2011_7035" x="16.34" y="740.644" width="921.32" height="56.32" filterUnits="userSpaceOnUse" color-interpolation-filters="sRGB">
<feFlood flood-opacity="0" result="BackgroundImageFix"/>
<feBlend mode="normal" in="SourceGraphic" in2="BackgroundImageFix" result="shape"/>
<feGaussianBlur stdDeviation="4.33" result="effect1_foregroundBlur_2011_7035"/>
</filter>
<filter id="filter2_i_2011_7035" x="67.2363" y="204.306" width="780.627" height="490.863" filterUnits="userSpaceOnUse" color-interpolation-filters="sRGB">
<feFlood flood-opacity="0" result="BackgroundImageFix"/>
<feBlend mode="normal" in="SourceGraphic" in2="BackgroundImageFix" result="shape"/>
<feColorMatrix in="SourceAlpha" type="matrix" values="0 0 0 0 0 0 0 0 0 0 0 0 0 0 0 0 0 0 127 0" result="hardAlpha"/>
<feOffset/>
<feGaussianBlur stdDeviation="5"/>
<feComposite in2="hardAlpha" operator="arithmetic" k2="-1" k3="1"/>
<feColorMatrix type="matrix" values="0 0 0 0 0 0 0 0 0 0 0 0 0 0 0 0 0 0 0.5 0"/>
<feBlend mode="normal" in2="shape" result="effect1_innerShadow_2011_7035"/>
</filter>
<filter id="filter3_f_2011_7035" x="65.8008" y="390.387" width="64.6113" height="44.8843" filterUnits="userSpaceOnUse" color-interpolation-filters="sRGB">
<feFlood flood-opacity="0" result="BackgroundImageFix"/>
<feBlend mode="normal" in="SourceGraphic" in2="BackgroundImageFix" result="shape"/>
<feGaussianBlur stdDeviation="0.5" result="effect1_foregroundBlur_2011_7035"/>
</filter>
<filter id="filter4_f_2011_7035" x="66.7734" y="396.355" width="57.1543" height="32.5077" filterUnits="userSpaceOnUse" color-interpolation-filters="sRGB">
<feFlood flood-opacity="0" result="BackgroundImageFix"/>
<feBlend mode="normal" in="SourceGraphic" in2="BackgroundImageFix" result="shape"/>
<feGaussianBlur stdDeviation="0.5" result="effect1_foregroundBlur_2011_7035"/>
</filter>
<radialGradient id="paint0_radial_2011_7035" cx="0" cy="0" r="1" gradientUnits="userSpaceOnUse" gradientTransform="translate(452 19.5) rotate(180) scale(452 19.5)">
<stop offset="0.601383" stop-color="#00D0FF"/>
<stop offset="1" stop-color="#006F88" stop-opacity="0"/>
</radialGradient>
<radialGradient id="paint1_radial_2011_7035" cx="0" cy="0" r="1" gradientUnits="userSpaceOnUse" gradientTransform="translate(458 404) rotate(92.1648) scale(291.208 758.687)">
<stop stop-color="#0F0F0F"/>
<stop offset="0.805869" stop-color="#0F0F0F"/>
<stop offset="0.852982" stop-color="#202020"/>
<stop offset="0.857581" stop-color="#202020"/>
<stop offset="0.970441" stop-color="#1D4652"/>
</radialGradient>
<linearGradient id="paint2_linear_2011_7035" x1="837.179" y1="588.944" x2="686.732" y2="447.823" gradientUnits="userSpaceOnUse">
<stop/>
<stop offset="1" stop-color="white" stop-opacity="0.5"/>
</linearGradient>
<linearGradient id="paint3_linear_2011_7035" x1="818.459" y1="357.256" x2="833.373" y2="351.542" gradientUnits="userSpaceOnUse">
<stop stop-opacity="0"/>
<stop offset="1"/>
</linearGradient>
<radialGradient id="paint4_radial_2011_7035" cx="0" cy="0" r="1" gradientUnits="userSpaceOnUse" gradientTransform="translate(324.73 474.07) rotate(-169.31) scale(262.487 207.365)">
<stop offset="0.615072" stop-color="#363636" stop-opacity="0"/>
<stop offset="1"/>
</radialGradient>
<linearGradient id="paint5_linear_2011_7035" x1="655.165" y1="104.038" x2="676.643" y2="98.144" gradientUnits="userSpaceOnUse">
<stop stop-color="white"/>
<stop offset="1" stop-color="white" stop-opacity="0"/>
</linearGradient>
<radialGradient id="paint6_radial_2011_7035" cx="0" cy="0" r="1" gradientUnits="userSpaceOnUse" gradientTransform="translate(661.789 48.0246) rotate(102.047) scale(45.5884 19.3505)">
<stop stop-color="white"/>
<stop offset="1" stop-color="white" stop-opacity="0"/>
</radialGradient>
<linearGradient id="paint7_linear_2011_7035" x1="683.963" y1="205.078" x2="615.466" y2="174.634" gradientUnits="userSpaceOnUse">
<stop stop-color="white" stop-opacity="0"/>
<stop offset="1" stop-color="white"/>
</linearGradient>
</defs>
</svg>
